<svg xmlns="http://www.w3.org/2000/svg" viewBox="0 0 137.15 244.78"><g id="Layer_2" data-name="Layer 2"><g id="Layer_1-2" data-name="Layer 1"><g id="revised"><path d="M137.15,33.06l0,1.51L134.57,192.5c-.18,11.09,0,21.51-4.87,27.15a43.32,43.32,0,0,1-8.21,7.59l-1.45.84c-7,3.31-18,6.61-29.49,7.79l-1.63.16a174.82,174.82,0,0,1-20.35.94c-3.06,0-5.85,0-8.41-.09-5.39-.2-9.77-.62-13.56-1-11.77-1.22-25-4.78-30.2-8.13h0a41.86,41.86,0,0,1-8.94-8.08C2.62,214,2.75,203.59,2.58,192.5L0,34.58l0-1.52a9.29,9.29,0,0,1,1.61-5.17L13.9,9.76c8.09,4.41,29.52,7.56,54.67,7.56q3.8,0,7.45-.09c4.08-.1,8-.29,11.81-.55,16.44-1.14,29.5-3.69,35.42-6.92l12.29,18.13A9.29,9.29,0,0,1,137.15,33.06Z" style="fill:#ce5959"/><path d="M122,226.91a12.13,12.13,0,0,1-2,3.29,36.52,36.52,0,0,1-6.9,6.39l-1.22.7a80.55,80.55,0,0,1-24.8,6.55,151.4,151.4,0,0,1-18.49.93,149.16,149.16,0,0,1-18.49-.93c-9.9-1-21.06-4-25.4-6.84h0a35.09,35.09,0,0,1-7.53-6.8,12.19,12.19,0,0,1-2-3.3c.4.29.81.57,1.21.83h0c5.16,3.35,18.43,6.91,30.2,8.13a177.67,177.67,0,0,0,22,1.1,179.86,179.86,0,0,0,22-1.1c11.5-1.18,22.54-4.48,29.49-7.79l1.45-.84C121.65,227.13,121.81,227,122,226.91Z" style="fill:#c1c1c1"/><path d="M87.08,236a174.82,174.82,0,0,1-20.35.94c-3.06,0-5.85,0-8.41-.09,4-4.67,14.6-18.88,22.93-45.43,8.39-26.75,8.84-73.52,5.65-100.75C85,74.34,77.18,31.07,74.66,17.23c4.08-.1,8-.29,11.81-.55.18,18,1.14,77.64,6.13,106.54C97.45,151.33,102.84,206.64,87.08,236Z" style="fill:#eaeaea"/><path d="M126.71,9.87c0,1.18-1.22,2.31-3.46,3.36-5.92,2.78-19,5-35.42,6-3.77.23-7.73.38-11.81.48q-3.66.07-7.44.07C43.42,19.74,22,17,13.89,13.23c-2.23-1.05-3.45-2.18-3.45-3.36,0-1,.82-1.9,2.34-2.78C19.71,3.07,41.28.12,67,0h3.12c25.73.12,47.29,3.07,54.22,7.09C125.89,8,126.71,8.91,126.71,9.87Z" style="fill:#d3d3d3;isolation:isolate"/><path d="M124.36,7.09a7.06,7.06,0,0,1-3,1.54c-.46.15-1,.29-1.52.43-6.25,1.61-18.08,2.87-32.65,3.46-3.64.15-7.46.25-11.39.31-2.36,0-4.75.05-7.19.05-22.83,0-42.48-1.56-51.22-3.82-.55-.13-1.05-.28-1.51-.43a7.06,7.06,0,0,1-3.06-1.54C19.71,3.07,41.28.12,67,0h3.12C95.87.12,117.43,3.07,124.36,7.09Z" style="fill:#efefef;isolation:isolate"/><path d="M119.8,9.06c-6.25,1.61-18.08,2.87-32.65,3.46-3.64.15-7.46.25-11.39.31-2.36,0-4.75.05-7.19.05-22.83,0-42.48-1.56-51.22-3.82C26.1,6.81,45.74,5.25,68.57,5.25S111.05,6.81,119.8,9.06Z" style="fill:#b4b4b4;isolation:isolate"/><ellipse cx="51.93" cy="8.54" rx="16.64" ry="1.39" style="fill:#484848;isolation:isolate"/><rect x="58.31" y="5.94" width="50.43" height="2.41" rx="1.11" transform="matrix(1, -0.03, 0.03, 1, -0.18, 2.65)" style="fill:#d3d3d3;isolation:isolate"/></g></g></g></svg>