<svg xmlns="http://www.w3.org/2000/svg" viewBox="0 0 196.75 126.11"><g id="Layer_2" data-name="Layer 2"><g id="Layer_1-2" data-name="Layer 1"><g id="revised"><path d="M192.88,18.69a28.85,28.85,0,0,0-9.16-6,106.9,106.9,0,0,0-21.95-6.8,259,259,0,0,0-34.29-4.79C122,.71,116.47.39,111,.22c-.29,0-.65.16-.85-.22H86.19c-.33.43-.8.21-1.2.22-3.82.2-7.65.3-11.46.56a287.13,287.13,0,0,0-33.21,4A130.13,130.13,0,0,0,15.19,11.6c-4.11,1.66-8.09,3.56-11.35,6.66C1.48,20.5.09,23.1,1,26.49c2.34,4.91,6.79,7.32,11.39,9.43,9.37,4.29,19.35,6.5,29.43,8.32,5.68,1,11.39,1.81,17.14,2.41,4.34.45,8.67.88,13,1.17,5.15.35,10.3.52,15.45.74,6.42.27,12.85.19,19.27.12,5.47-.07,10.94-.33,16.39-.71,5.8-.41,11.59-.93,17.36-1.64,12.14-1.5,24.18-3.53,35.83-7.4,5.24-1.74,10.36-3.79,14.79-7.23a17.55,17.55,0,0,0,3.53-3.77C196.52,24.15,195.37,21.28,192.88,18.69ZM190.46,27a21.12,21.12,0,0,1-6.62,4.69,88.07,88.07,0,0,1-19.3,6.56,221.82,221.82,0,0,1-27.24,4.57c-9.87,1.09-19.78,1.66-29.71,2s-19.72.12-29.57-.39A270.12,270.12,0,0,1,37.24,39.5c-8-1.66-16-3.65-23.46-7.11a26,26,0,0,1-7.25-4.61c-2.67-2.58-2.68-4.28,0-6.84,3-2.85,6.73-4.51,10.5-6A131.9,131.9,0,0,1,42.15,8.29,274.2,274.2,0,0,1,70.28,4.8c4.28-.33,8.57-.59,12.87-.72,5-.15,10-.39,14.26-.28,8.65,0,16.53.21,24.4.73,15.94,1,31.76,2.91,47.24,7.07a68.75,68.75,0,0,1,16.81,6.51,17.67,17.67,0,0,1,4.64,3.62C192.18,23.65,192.17,25.11,190.46,27Z" style="fill:#d3bc6f"/><path d="M196.75,100.07v1.42c-1.61,3.36-4.5,5.4-7.51,7.3-6.82,4.3-14.3,7.08-22,9.37a185.32,185.32,0,0,1-32.43,6.3,288.77,288.77,0,0,1-44.3,1.35c-19.7-.82-39.21-3.09-58.34-8-8.13-2.08-16.14-4.58-23.6-8.53a26,26,0,0,1-6.45-4.55C-.63,101.91-.7,99.06,1.87,96c0,.32,0,.63,0,.95,0,4.37,0,4.36,4,6.4a109.6,109.6,0,0,0,18.75,7.08,237.32,237.32,0,0,0,24.41,5.83c5.66,1.06,11.36,2,17.09,2.66,5.49.65,11,1.23,16.52,1.63,5.3.39,10.61.64,15.91.72s10.64.09,16-.12c5.73-.22,11.46-.47,17.19-1,5.16-.45,10.3-1.07,15.41-1.89a151.78,151.78,0,0,0,25-6,77.09,77.09,0,0,0,20.42-9.92c1.48-1,2.43-2.16,2.07-4.07a7.42,7.42,0,0,1,0-1.41A14.21,14.21,0,0,1,196.75,100.07Z" style="fill:#d3bc6f"/><path d="M194.64,98.35a7.42,7.42,0,0,1,0-1.41c0-.55,0-1.1,0-1.65V29.34c0-.47,0-.94-.05-1.41a17.55,17.55,0,0,1-3.53,3.77c-4.43,3.44-9.55,5.49-14.79,7.23-11.65,3.87-23.69,5.9-35.83,7.4-5.77.71-11.56,1.23-17.36,1.64-5.45.38-10.92.64-16.39.71-6.42.07-12.85.15-19.27-.12-5.15-.22-10.3-.39-15.45-.74-4.35-.29-8.68-.72-13-1.17-5.75-.6-11.46-1.39-17.14-2.41-10.08-1.82-20.06-4-29.43-8.32-4.6-2.11-9-4.52-11.39-9.43,0,.47,0,.94,0,1.42q.22,17.9.47,35.78L1.87,96c0,.32,0,.63,0,.95,0,4.37,0,4.36,4,6.4a109.6,109.6,0,0,0,18.75,7.08,237.32,237.32,0,0,0,24.41,5.83c5.66,1.06,11.36,2,17.09,2.66,5.49.65,11,1.23,16.52,1.63,5.3.39,10.61.64,15.91.72s10.64.09,16-.12c5.73-.22,11.46-.47,17.19-1,5.16-.45,10.3-1.07,15.41-1.89a151.78,151.78,0,0,0,25-6,77.09,77.09,0,0,0,20.42-9.92C194.05,101.37,195,100.26,194.64,98.35ZM158.8,84.7a9.17,9.17,0,0,1-2,2.19,43.48,43.48,0,0,1-11.66,6.86,8.33,8.33,0,0,1-2.3.92,57.22,57.22,0,0,1-13.59,3.45,84.93,84.93,0,0,1-19.12.47,126,126,0,0,1-22.88-4.06,142.7,142.7,0,0,1-19.42-6.69c-.37-.16-.71-.46-1.12.06a13.1,13.1,0,0,1-5.41,3.49,39,39,0,0,1-14,3.14,14.9,14.9,0,0,1-7.26-1.3,6.33,6.33,0,0,1-2.93-2.81,2.66,2.66,0,0,1,.56-3.54,12.47,12.47,0,0,1,4.82-2.65,62.51,62.51,0,0,1,11-2.61c.22,0,.48,0,.71-.35a21.51,21.51,0,0,1-4.15-2.55A30.76,30.76,0,0,1,42.71,71c-2-3.2-1.35-4.66,2.37-5.1a17.86,17.86,0,0,1,14,4.39,62.81,62.81,0,0,1,5.41,5.29,4.44,4.44,0,0,0,5.25,1.32,87.17,87.17,0,0,1,18.06-3.52,227.55,227.55,0,0,1,30-1.4c6.27.12,12.53.47,18.76,1.17.19,0,.38.09.57.14.62.12,1.29-.13,1.88.25a56.65,56.65,0,0,1,15.24,3.56A13.64,13.64,0,0,1,158,79.32,3.8,3.8,0,0,1,158.8,84.7Z" style="fill:#ce5959"/><path d="M190.5,21.73a17.67,17.67,0,0,0-4.64-3.62,68.75,68.75,0,0,0-16.81-6.51c-15.48-4.16-31.3-6-47.24-7.07-7.87-.52-15.75-.76-24.4-.73-4.25-.11-9.26.13-14.26.28-4.3.13-8.59.39-12.87.72A274.2,274.2,0,0,0,42.15,8.29a131.9,131.9,0,0,0-25.08,6.64c-3.77,1.5-7.49,3.16-10.5,6-2.72,2.56-2.71,4.26,0,6.84a26,26,0,0,0,7.25,4.61c7.48,3.46,15.43,5.45,23.46,7.11A270.12,270.12,0,0,0,78,44.42c9.85.51,19.7.68,29.57.39s19.84-.86,29.71-2a221.82,221.82,0,0,0,27.24-4.57,88.07,88.07,0,0,0,19.3-6.56A21.12,21.12,0,0,0,190.46,27C192.17,25.11,192.18,23.65,190.5,21.73Zm-33.12,2.36c-2.09,2.25-4.86,3.31-7.65,4.28A90.61,90.61,0,0,1,134.63,32c-5.15.86-10.34,1.33-15.53,1.85-2.53.25-5.08.38-7.63.48-6.7.28-13.4.37-20.09.22q-6.72-.15-13.42-.7a178,178,0,0,1-18.53-2.32c-.31-.06-.66,0-.71-.46-3.47,0-6.93.32-10.4.21C41.65,31,35,30.45,28.62,28.4a17.48,17.48,0,0,1-4.71-2.16c-2.8-1.93-2.82-4.18,0-6.08s5.88-2.63,9-3.35a95,95,0,0,1,15.13-1.74c.67-.87,1.75-.8,2.65-1a117.37,117.37,0,0,1,16.74-3.18c4.13-.49,8.26-.91,12.41-1.18,3.21-.22,6.44-.3,9.65-.49,5.09-.32,10.17-.26,15.24-.13s10.2.37,15.29.83c4.41.4,8.83.8,13.2,1.5,7.14,1.14,14.26,2.38,20.84,5.63a11.11,11.11,0,0,1,3.31,2.43A3.19,3.19,0,0,1,157.38,24.09Z" style="fill:#f7e4a0"/><path d="M135.26,87.6c-1.69-3.89-1-7.7.51-11.45.4-1,.92-1.92,1.38-2.87-.19,0-.38-.11-.57-.14-6.23-.7-12.49-1-18.76-1.17a227.55,227.55,0,0,0-30,1.4,87.17,87.17,0,0,0-18.06,3.52,4.44,4.44,0,0,1-5.25-1.32,62.81,62.81,0,0,0-5.41-5.29,17.86,17.86,0,0,0-14-4.39c-3.72.44-4.36,1.9-2.37,5.1a30.76,30.76,0,0,0,7.41,7.73,21.51,21.51,0,0,0,4.15,2.55c-.23.39-.49.31-.71.35a62.51,62.51,0,0,0-11,2.61,12.47,12.47,0,0,0-4.82,2.65,2.66,2.66,0,0,0-.56,3.54,6.33,6.33,0,0,0,2.93,2.81,14.9,14.9,0,0,0,7.26,1.3,39,39,0,0,0,14-3.14,13.1,13.1,0,0,0,5.41-3.49c.41-.52.75-.22,1.12-.06a142.7,142.7,0,0,0,19.42,6.69,126,126,0,0,0,22.88,4.06,84.93,84.93,0,0,0,19.12-.47,57.22,57.22,0,0,0,13.59-3.45C139.57,93.13,136.76,91.05,135.26,87.6Zm-14.77,7.5c-.7.06-1.4.16-1.9.22-1.53-.1-3,.1-3.73-1.37s.37-2.51,1.22-3.54a17,17,0,0,1,2.42-2.23c.46-.39,1-.57,1.45,0s.18,1-.29,1.42a13.92,13.92,0,0,0-2.7,2.61c-.65.89-.51,1.18.59,1.28a10.21,10.21,0,0,0,2.7-.18c.64-.11,1.26,0,1.36.76S121.15,95,120.49,95.1Z" style="fill:#c1d3db"/><path d="M158,79.32a13.64,13.64,0,0,0-3.74-2.23A56.65,56.65,0,0,0,139,73.53a27.71,27.71,0,0,0-2.55,6.32c-1.16,5.41.7,9.62,5.52,12.33,1,.58,2.11,1,3.17,1.57a43.48,43.48,0,0,0,11.66-6.86,9.17,9.17,0,0,0,2-2.19A3.8,3.8,0,0,0,158,79.32Zm-12.33,4.14A2.44,2.44,0,1,1,148.17,81,2.51,2.51,0,0,1,145.68,83.46Z" style="fill:#c1d3db"/><path d="M139,73.53a28.65,28.65,0,0,0-2.55,6.32c-1.15,5.41.69,9.62,5.52,12.33,1,.58,2.11,1,3.17,1.57a8.35,8.35,0,0,1-2.3.93c-3.3-1.55-6.11-3.63-7.61-7.08-1.69-3.89-1-7.7.51-11.46.4-1,.92-1.91,1.38-2.86C137.77,73.4,138.44,73.16,139,73.53Z" style="fill:#97b5bf"/><path d="M48.05,15.07c.67-.87,1.75-.8,2.65-1a117.37,117.37,0,0,1,16.74-3.18c4.13-.49,8.26-.91,12.41-1.19,3.22-.21,6.44-.29,9.65-.48,5.08-.32,10.17-.26,15.24-.13s10.2.37,15.29.83c4.41.4,8.83.8,13.2,1.5,7.14,1.14,14.26,2.38,20.84,5.63a11.11,11.11,0,0,1,3.31,2.43,3.19,3.19,0,0,1,0,4.65c-2.09,2.24-4.86,3.31-7.65,4.28A91.61,91.61,0,0,1,134.63,32c-5.15.86-10.34,1.33-15.52,1.85-2.54.25-5.09.38-7.64.48-6.7.28-13.4.38-20.09.22q-6.72-.15-13.42-.7a178.15,178.15,0,0,1-18.54-2.32c-.3-.06-.65,0-.7-.45.18-.28.47-.24.74-.26a56.64,56.64,0,0,0,10.66-1.85c0,.29.21.38.48.41,3.55.31,7.1.69,10.67.92s7.14.45,10.72.46c4.76,0,9.53.14,14.3-.13,3.65-.2,7.31-.2,11-.52,3-.27,6-.42,9-.77a137.37,137.37,0,0,0,14.39-2.35c4.26-1,8.5-2,12.37-4.16.47-.26,1.14-.56,1.14-1.05s-.65-.71-1.1-1a33.31,33.31,0,0,0-7-2.79,119.78,119.78,0,0,0-17.19-3.37c-4.56-.61-9.14-.92-13.7-1.35-3.45-.32-6.92-.33-10.37-.41q-7.14-.19-14.3.09c-5.58.21-11.15.5-16.71,1-3.87.35-7.71.88-11.55,1.45-.27,0-.44.16-.45.44a92.83,92.83,0,0,0-10.93-.69C49.93,15.15,49,15.09,48.05,15.07Z" style="fill:#e5cf8c"/><path d="M77.76,21.24a10.58,10.58,0,0,0-4.05-2.56,48.3,48.3,0,0,0-11.89-2.85,93.14,93.14,0,0,0-10.94-.69c-1,0-1.89,0-2.83-.07a95,95,0,0,0-15.13,1.74c-3.15.72-6.3,1.51-9,3.35s-2.78,4.15,0,6.08a17.48,17.48,0,0,0,4.71,2.16c6.41,2.05,13,2.62,19.7,2.83,3.47.11,6.93-.24,10.4-.21.18-.27.47-.23.75-.25a56.82,56.82,0,0,0,10.65-1.85,26.7,26.7,0,0,0,5.17-2,8.56,8.56,0,0,0,2.46-1.81A2.66,2.66,0,0,0,77.76,21.24ZM36.64,23.92c-1.87,1.43-6.21,1.56-8.12.24a1.32,1.32,0,0,1-.07-2.39,6.88,6.88,0,0,1,3.9-1.18,7.63,7.63,0,0,1,4.11.81C37.67,22.11,37.72,23.09,36.64,23.92Zm35,.56a12.82,12.82,0,0,1-5.51,2,28.21,28.21,0,0,1-6.23.45,29,29,0,0,1-12.76-2.1c-1.09-.47-2.4-1.05-2.37-2.48s1.38-2,2.55-2.45a13.09,13.09,0,0,1,4.07-1.06A36.34,36.34,0,0,1,69,19.87a7.93,7.93,0,0,1,2.7,1.41C73,22.33,73,23.49,71.68,24.48Z" style="fill:#d3bc6f"/><path d="M118.59,95.32c-1.53-.1-3,.1-3.73-1.37s.38-2.51,1.22-3.54a17,17,0,0,1,2.42-2.23c.47-.39,1-.57,1.45,0s.18,1-.29,1.41a14.27,14.27,0,0,0-2.7,2.62c-.65.9-.51,1.18.59,1.27a10.17,10.17,0,0,0,2.7-.16c.64-.12,1.26,0,1.36.75s-.46,1-1.12,1S119.09,95.26,118.59,95.32Z" style="fill:#97b5bf"/><path d="M145.72,78.59A2.44,2.44,0,1,1,143.29,81,2.51,2.51,0,0,1,145.72,78.59Z" style="fill:#97b5bf"/><path d="M70.12,28.92a26.07,26.07,0,0,0,5.17-2,8.43,8.43,0,0,0,2.46-1.81,2.66,2.66,0,0,0,0-3.91,10.58,10.58,0,0,0-4.05-2.56,48.27,48.27,0,0,0-11.9-2.85c0-.28.18-.4.45-.44,3.84-.57,7.68-1.1,11.55-1.45,5.56-.5,11.13-.79,16.71-1q7.16-.28,14.3-.09c3.45.08,6.92.09,10.37.41,4.56.43,9.14.74,13.7,1.35A119.78,119.78,0,0,1,146.08,18a33.31,33.31,0,0,1,7,2.79c.45.25,1.11.57,1.1,1s-.67.79-1.14,1.05c-3.87,2.15-8.11,3.2-12.37,4.16a137.37,137.37,0,0,1-14.39,2.35c-3,.35-6,.5-9,.77-3.65.32-7.31.32-11,.52-4.77.27-9.54.15-14.3.13-3.58,0-7.15-.22-10.72-.46s-7.12-.61-10.67-.92C70.33,29.3,70.14,29.21,70.12,28.92Z" style="fill:#f7e4a0"/><path d="M51.43,18.8A36.46,36.46,0,0,1,69,19.87a8,8,0,0,1,2.7,1.41c1.3,1,1.29,2.21,0,3.2a12.86,12.86,0,0,1-5.51,2,28.21,28.21,0,0,1-6.23.45c-.51-.73-1.36-.44-2-.6a17.36,17.36,0,0,1-6.44-2.49c-1.79-1.28-2-3.09-.43-4.43A2.61,2.61,0,0,0,51.43,18.8Z" style="fill:#f7e4a0"/><path d="M51.43,18.8a2.61,2.61,0,0,1-.39.57c-1.59,1.34-1.36,3.15.43,4.43a17.36,17.36,0,0,0,6.44,2.49c.67.16,1.52-.13,2,.6a29,29,0,0,1-12.76-2.1c-1.09-.47-2.4-1.05-2.37-2.49s1.38-2,2.55-2.45A13.35,13.35,0,0,1,51.43,18.8Z" style="fill:#e5cf8c"/><path d="M32.35,20.59a7.63,7.63,0,0,1,4.11.81c1.21.71,1.26,1.69.18,2.53-1.87,1.42-6.21,1.55-8.12.24a1.32,1.32,0,0,1-.07-2.4A6.88,6.88,0,0,1,32.35,20.59Z" style="fill:#f7e4a0"/></g></g></g></svg>