<svg xmlns="http://www.w3.org/2000/svg" viewBox="0 0 142.38 558.2"><g id="Layer_2" data-name="Layer 2"><g id="Layer_1-2" data-name="Layer 1"><g id="revised" style="opacity:0.9"><path d="M137.34,537.3s-5.4,5.6-32.12,11.68a161.41,161.41,0,0,1-49,3.46,144.68,144.68,0,0,1-37.69-7.75c-5.09-1.77-6.92-3.16-14.44-6.74,0,0-1-64.21-2.07-131.85v-.3c-.86-56-1.71-114.36-2-140.4a.14.14,0,0,0,0-.09c.05-3.24.12-5.69.22-7.22.92-13.65,16.71-27.4,20.46-32.69,9.23-13,8.6-10.85,9.74-26.84,1.07-14.85,2.9-38.26,4.6-58.19,0,0,0,0,0-.05.65-5.78,1.14-11.2,1.41-16h0c.05-.88.09-1.73.12-2.57C37.47,98.34,39,73.86,41.4,50.6c.14-1.37-.53-4.39-2.1-5.63-1-.77-2.78-1.88-2.06-5.51C39.1,30,40.09,22.53,41.4,13c0,0,13.87,1.53,20.18,1.92,5.84.36,13.87.95,19.74.1,5-.72,19.84-2.48,19.84-2.48,1.29,9,1.54,17.94,3,26.89A6.49,6.49,0,0,1,102.83,45a7,7,0,0,0-1.39,5.6c.77,6.44,2.06,50.49,3.86,69.29,2,21.08,5.1,59.53,6.61,80.65,1.15,16,.51,13.84,9.74,26.83,3.76,5.29,19.54,19,20.46,32.69C143.74,284.39,137.34,537.3,137.34,537.3Z" style="fill:#6c9f33"/><path d="M137.31,537.29c0,2-2.23,6.43-17.16,12.59-15.63,6.44-31.5,8.37-50.14,8.32-16.62,0-33.82-2.71-46.59-7.25-13.86-4.92-17-8.8-19.36-13,0,0,10.87,4.57,15.69,6,14.2,4.28,32.45,7.87,50.94,7.38,16.23-.44,33.12-2,47.16-6.43C132.53,540.28,136.38,537.74,137.31,537.29Z" style="fill:#43572c"/><path d="M103.51,7.61c-.27-3.89-3.1-4-7-5C80-1.72,49.69.26,43.83,2c-3.49,1-4.06,1.84-4.74,5.41C38.5,10.58,39,11.68,41.4,13c8.11,2.22,20.23,2.77,26.54,3.17,5.84.36,28.45-1.05,33.22-3.07C104.62,11.64,103.68,10.13,103.51,7.61Zm-8.86-.1c-6.71,1.45-17.84,1-24.46.85A96.34,96.34,0,0,1,49.58,6.68,14.36,14.36,0,0,1,47.46,6,.55.55,0,0,1,47.5,5a25.44,25.44,0,0,1,7-1.45c12-1.31,35.47-.39,41,1.72C98.92,6.56,95.83,7.25,94.65,7.51Z" style="fill:#608f31"/><ellipse cx="71.46" cy="5.96" rx="26.72" ry="3.63" style="fill:#43572c"/></g></g></g></svg>