<svg xmlns="http://www.w3.org/2000/svg" viewBox="0 0 199.96 369.77"><g id="Layer_2" data-name="Layer 2"><g id="Layer_1-2" data-name="Layer 1"><polygon points="0 72.47 132.34 86.82 132.16 369.77 3.24 345.78 0 72.47" style="fill:#fdf5b3"/><polygon points="198.41 68.28 132.34 86.82 132.16 369.77 199.96 342.97 198.41 68.28" style="fill:#e8df92"/><polygon points="159.72 33.8 198.41 68.28 148.48 55.82 159.72 33.8" style="fill:#dad07d"/><polygon points="132.34 86.82 198.41 68.28 148.48 55.82 132.34 86.82" style="fill:#bfb55d"/><polygon points="0 72.47 132.34 86.82 159.72 33.8 46.88 26.09 0 72.47" style="fill:#f1e89b"/><path d="M51.8,0,155.32,6a4.68,4.68,0,0,1,4.4,4.67V33.8L46.88,26.09V4.65A4.65,4.65,0,0,1,51.8,0Z" style="fill:#fdf5b3"/><path d="M52,216.17v.62a3.42,3.42,0,0,0-1.3,0,.86.86,0,0,0-.58.64,7.19,7.19,0,0,0-.14,1.65l0,15.23a6.62,6.62,0,0,0,.16,1.69,1.32,1.32,0,0,0,.58.83,4.6,4.6,0,0,0,1.28.46v.62c-.59-.14-1.33-.29-2.24-.46L47,237l-2.89-.46c-.9-.14-1.62-.24-2.17-.29v-.61a5.79,5.79,0,0,0,1.46,0,.86.86,0,0,0,.67-.63,5.83,5.83,0,0,0,.17-1.63l0-16.43h.29l-7.12,18.52-.45-.07-8-21.05V228a27.36,27.36,0,0,0,.16,3.18,2.81,2.81,0,0,0,.77,1.69,5.17,5.17,0,0,0,1.95,1v.62c-.38-.1-.87-.21-1.48-.32s-1.17-.22-1.7-.3l-1.28-.2c-.44-.06-.8-.1-1.08-.11V233a2.19,2.19,0,0,0,1.31-.44,2.14,2.14,0,0,0,.56-1.33,20.33,20.33,0,0,0,.14-2.68V215.47a7.64,7.64,0,0,0-.15-1.7,1.3,1.3,0,0,0-.58-.83,3.82,3.82,0,0,0-1.3-.45v-.62l1.08.25,1.28.24,3.16.5,2.73.39,5.64,14.63-.85.87L44.52,215l1.22.2,1.26.21c.94.16,1.87.3,2.78.43S51.44,216.1,52,216.17Z" style="fill:#226798"/><path d="M64.11,218.19v.61a3.53,3.53,0,0,0-1.29,0,.84.84,0,0,0-.59.64,7.07,7.07,0,0,0-.14,1.65l0,15.23a7,7,0,0,0,.16,1.68,1.32,1.32,0,0,0,.58.84,5.09,5.09,0,0,0,1.28.46v.61c-.55-.13-1.25-.28-2.11-.43s-1.74-.31-2.63-.45l-2.89-.47c-.9-.14-1.62-.23-2.17-.29v-.61a3.75,3.75,0,0,0,1.3,0,.79.79,0,0,0,.57-.64,7.11,7.11,0,0,0,.14-1.63l0-15.23a7.77,7.77,0,0,0-.14-1.7,1.39,1.39,0,0,0-.58-.84,4.07,4.07,0,0,0-1.3-.44v-.62c.55.12,1.28.26,2.18.43s1.86.34,2.88.51,1.77.29,2.63.41Z" style="fill:#226798"/><path d="M76.47,220.25v.62a4.53,4.53,0,0,0-1.47,0,.91.91,0,0,0-.67.63,5.53,5.53,0,0,0-.16,1.64V239a5.55,5.55,0,0,0,.12,1.26,1,1,0,0,0,.43.62,2.43,2.43,0,0,0,.91.29l.94.16a2.42,2.42,0,0,0,1.59-.35,6.18,6.18,0,0,0,1.66-1.41,9.7,9.7,0,0,0,1.4-2.21,10.55,10.55,0,0,0,.85-2.69l.65.11c0,.72-.08,1.66-.08,2.81,0,.53,0,1.3,0,2.32s.08,2.07.18,3.17c-1-.2-2.06-.4-3.27-.62l-3.24-.55-2-.33-2.56-.41-2.78-.43-2.66-.4v-.61a4.32,4.32,0,0,0,1.3,0,.8.8,0,0,0,.57-.64,6.68,6.68,0,0,0,.14-1.64V222.16a7.7,7.7,0,0,0-.15-1.7,1.34,1.34,0,0,0-.58-.83,4.31,4.31,0,0,0-1.3-.45v-.61l2.18.42,2.88.52c1,.15,1.88.3,2.79.43S75.89,220.18,76.47,220.25Z" style="fill:#226798"/><path d="M94.67,223.29v.61a3.32,3.32,0,0,0-1.29,0,.83.83,0,0,0-.59.64,7.07,7.07,0,0,0-.14,1.65l0,15.23a7.08,7.08,0,0,0,.16,1.68,1.3,1.3,0,0,0,.58.83,4.72,4.72,0,0,0,1.28.46V245c-.55-.14-1.25-.28-2.11-.43L90,244.14l-2.89-.46c-.9-.14-1.62-.24-2.17-.29v-.61a4,4,0,0,0,1.3,0,.8.8,0,0,0,.57-.64,7.22,7.22,0,0,0,.14-1.64l0-15.23a7.73,7.73,0,0,0-.14-1.69,1.34,1.34,0,0,0-.58-.84,4.07,4.07,0,0,0-1.3-.44v-.62l2.18.43q1.35.25,2.88.51c.89.15,1.77.28,2.63.41Zm10.4,1.73v.59a7.13,7.13,0,0,0-2.14.65,8.48,8.48,0,0,0-2.51,2l-5.23,5.54,2.3-2.87,6.75,13.25a10.16,10.16,0,0,0,.74,1.2,4.85,4.85,0,0,0,1,1v.62c-.8-.17-1.64-.34-2.54-.5l-2.58-.45-1.62-.25c-.64-.1-1.46-.21-2.44-.33v-.62c.89.11,1.41.08,1.55-.08s.07-.52-.22-1.08L94,235.39a6.15,6.15,0,0,0-.51-.91,2,2,0,0,0-.44-.47,1.53,1.53,0,0,0-.56-.25v-.64a3.71,3.71,0,0,0,2.36-.52,13.4,13.4,0,0,0,2.67-2.3l1-1a4,4,0,0,0,1.26-2.3,2.27,2.27,0,0,0-.6-1.75,3.13,3.13,0,0,0-1.75-.92v-.59l1.49.3,1.48.27,1.83.33c.61.1,1.14.18,1.61.23Z" style="fill:#226798"/><path d="M26,174.39a9.21,9.21,0,0,1,2.87.88,13.35,13.35,0,0,1,1.73,1.12c.23.18.42.32.56.41a1,1,0,0,0,.41.18.36.36,0,0,0,.41-.27,4.13,4.13,0,0,0,.22-1l.65.11c0,.43,0,.92-.07,1.49s-.05,1.33-.05,2.27,0,2.17,0,3.71l-.66-.11a12.25,12.25,0,0,0-.73-3.41,9.2,9.2,0,0,0-1.68-2.92,4.29,4.29,0,0,0-2.54-1.47,2.7,2.7,0,0,0-2.08.4,2.27,2.27,0,0,0-.82,2,4.05,4.05,0,0,0,.51,2,9.56,9.56,0,0,0,1.61,2c.73.72,1.7,1.63,2.89,2.73.86.77,1.63,1.54,2.32,2.29a10.17,10.17,0,0,1,1.67,2.42,7.1,7.1,0,0,1,.63,3,4.61,4.61,0,0,1-1.07,3.23A5,5,0,0,1,29.94,197a10.09,10.09,0,0,1-3.84,0,11.18,11.18,0,0,1-3.09-.88A17.26,17.26,0,0,1,21.07,195a2.38,2.38,0,0,0-1-.59.36.36,0,0,0-.41.27,4,4,0,0,0-.22,1l-.65-.1c0-.53.06-1.15.07-1.85s0-1.62,0-2.74,0-2.56,0-4.3l.66.11a20.35,20.35,0,0,0,.64,4.13,8.76,8.76,0,0,0,1.63,3.29,4.6,4.6,0,0,0,2.91,1.64,4,4,0,0,0,1.81-.05,2.19,2.19,0,0,0,1.18-.83,2.68,2.68,0,0,0,.42-1.56,5.11,5.11,0,0,0-.54-2.35,9.07,9.07,0,0,0-1.47-2A27,27,0,0,0,24,187c-.89-.81-1.72-1.6-2.5-2.39a10.3,10.3,0,0,1-1.87-2.52,6.66,6.66,0,0,1-.7-3,4.52,4.52,0,0,1,1-3.14,4.69,4.69,0,0,1,2.61-1.45A9.21,9.21,0,0,1,26,174.39Z" style="fill:#226798"/><path d="M54.87,179.64v.61a2,2,0,0,0-1.29.43A2.14,2.14,0,0,0,53,182a18.67,18.67,0,0,0-.14,2.7v7.4a24.67,24.67,0,0,1-.24,3.55,7.3,7.3,0,0,1-.92,2.76,4.12,4.12,0,0,1-2.2,1.72,8,8,0,0,1-3.91.12,14.8,14.8,0,0,1-2.76-.77,8.08,8.08,0,0,1-2.59-1.6,6.6,6.6,0,0,1-1.48-2.12,9.39,9.39,0,0,1-.68-2.69,31,31,0,0,1-.18-3.38v-9.64a7.83,7.83,0,0,0-.14-1.7,1.37,1.37,0,0,0-.57-.83,4,4,0,0,0-1.31-.45v-.61l2.17.42c.91.18,1.85.34,2.83.51s1.94.31,2.85.44,1.66.24,2.24.31v.62a4.48,4.48,0,0,0-1.46,0,.91.91,0,0,0-.67.63,5.81,5.81,0,0,0-.17,1.64l0,12.53a12.55,12.55,0,0,0,.23,2.57,5.18,5.18,0,0,0,.67,1.76,3,3,0,0,0,1.11,1.06,4.72,4.72,0,0,0,1.55.52,3.78,3.78,0,0,0,3-.5,4.48,4.48,0,0,0,1.53-2.54,15.45,15.45,0,0,0,.45-4.09v-7.12a27,27,0,0,0-.16-3.17,2.9,2.9,0,0,0-.76-1.71,4.74,4.74,0,0,0-2-1v-.62c.38.09.87.19,1.48.31l1.7.32,1.29.18Z" style="fill:#226798"/><path d="M56.69,179.94l2.18.43c.89.17,1.8.33,2.71.48s1.86.3,2.73.42l1.85.28a11.92,11.92,0,0,1,6.44,2.76A6.39,6.39,0,0,1,74.72,189a6.47,6.47,0,0,1-.42,2.24,4.78,4.78,0,0,1-1.45,2,6,6,0,0,1-2.8,1.21,12.83,12.83,0,0,1-4.5-.11l-3-.5v-.61l2.73.45a2.47,2.47,0,0,0,2.2-.46,3.57,3.57,0,0,0,1-2,14.21,14.21,0,0,0,.27-2.87,12.53,12.53,0,0,0-.62-4.46,2.65,2.65,0,0,0-2.11-1.8c-.65-.11-1.07,0-1.25.31a4.77,4.77,0,0,0-.29,2.08l0,14.92a5.5,5.5,0,0,0,.25,1.91,1.6,1.6,0,0,0,.92.95,8.44,8.44,0,0,0,2,.52v.71L65.13,203c-1-.19-2.15-.39-3.33-.58-.87-.15-1.74-.28-2.61-.41l-2.47-.35v-.61A4.07,4.07,0,0,0,58,201a.8.8,0,0,0,.57-.64,7.22,7.22,0,0,0,.14-1.64l0-15.23a7.73,7.73,0,0,0-.14-1.69A1.34,1.34,0,0,0,58,181a4.07,4.07,0,0,0-1.3-.44Z" style="fill:#226798"/><path d="M92.31,185.88c-.07,1-.13,2-.15,2.94s0,1.68,0,2.19,0,.84,0,1.23,0,.72.06,1l-.66-.11a13.46,13.46,0,0,0-1.14-4.19,6.42,6.42,0,0,0-1.86-2.37,5.27,5.27,0,0,0-2.24-1l-.37-.06a3.13,3.13,0,0,0-1.11-.05.63.63,0,0,0-.49.45,4.14,4.14,0,0,0-.13,1.24l0,16.46a4.65,4.65,0,0,0,.13,1.27,1,1,0,0,0,.5.63,3.73,3.73,0,0,0,1.11.32l.94.16a3.37,3.37,0,0,0,2-.33,4.75,4.75,0,0,0,1.92-1.94,12,12,0,0,0,1.33-4.13l.65.1c0,.73-.08,1.67-.08,2.81,0,.52,0,1.25,0,2.2s.08,2,.17,3c-1-.21-2.05-.41-3.27-.63l-3.24-.55-1.94-.33-2.56-.41-2.79-.43-2.66-.4v-.61a4.07,4.07,0,0,0,1.31,0,.82.82,0,0,0,.57-.64,7.22,7.22,0,0,0,.14-1.64l0-15.23a7.73,7.73,0,0,0-.14-1.69,1.31,1.31,0,0,0-.59-.84,3.91,3.91,0,0,0-1.29-.44v-.62l2.66.49,2.78.5,2.56.44,2,.32,3,.48Q91,185.73,92.31,185.88ZM88.2,195.7v.61l-4.83-.81v-.61Zm.82-3.92c-.07,1.15-.11,2-.1,2.66s0,1.17,0,1.69,0,1.07,0,1.69.07,1.52.15,2.69l-.66-.1a6.79,6.79,0,0,0-.7-2.18,5.33,5.33,0,0,0-1.35-1.68,4,4,0,0,0-1.9-.86v-.61A2.56,2.56,0,0,0,86,195a3,3,0,0,0,1.15-.79,5.13,5.13,0,0,0,.83-1.18,5.06,5.06,0,0,0,.44-1.31Z" style="fill:#226798"/><path d="M95.58,186.43l2.17.42c.9.17,1.81.33,2.72.48s1.86.3,2.73.43,1.49.22,1.85.28a18.18,18.18,0,0,1,4.79,1.38,7,7,0,0,1,2.83,2.24,5.38,5.38,0,0,1,.94,3.15,5.52,5.52,0,0,1-.42,2.14,3.92,3.92,0,0,1-1.45,1.7,6.2,6.2,0,0,1-2.8.92,16.31,16.31,0,0,1-4.51-.25l-2.72-.45v-.62l2.44.41a2.81,2.81,0,0,0,2.2-.32,2.85,2.85,0,0,0,1-1.67,10.7,10.7,0,0,0,.27-2.52,9.94,9.94,0,0,0-.62-3.86,2.62,2.62,0,0,0-2.12-1.69c-.64-.11-1.06,0-1.25.31a5,5,0,0,0-.28,2.07l0,15.23a6.62,6.62,0,0,0,.16,1.69,1.32,1.32,0,0,0,.58.83,4.94,4.94,0,0,0,1.28.46v.61c-.55-.13-1.25-.27-2.12-.43l-2.62-.45-2.89-.47c-.9-.14-1.63-.23-2.18-.28v-.62a4.14,4.14,0,0,0,1.31,0,.82.82,0,0,0,.57-.65,7.05,7.05,0,0,0,.14-1.63l0-15.23a7.83,7.83,0,0,0-.14-1.7,1.32,1.32,0,0,0-.59-.83,4.13,4.13,0,0,0-1.29-.45Zm6,11.89c.69.13,1.33.28,1.94.44l1.67.45c.52.14,1,.25,1.31.33a10.91,10.91,0,0,1,4.57,1.9,5.14,5.14,0,0,1,1.86,3.19l.6,3.3a5.5,5.5,0,0,0,.52,1.65,1,1,0,0,0,.76.55,1,1,0,0,0,.49,0,1.15,1.15,0,0,0,.4-.24l.36.46a3.72,3.72,0,0,1-1.91,1,6.93,6.93,0,0,1-2.35,0,6.34,6.34,0,0,1-3-1.22,4.15,4.15,0,0,1-1.4-2.83l-.43-3.14a20,20,0,0,0-.43-2.31,5.36,5.36,0,0,0-.68-1.66,1.7,1.7,0,0,0-1.17-.77l-3.07-.51Z" style="fill:#226798"/></g></g></svg>