<svg xmlns="http://www.w3.org/2000/svg" viewBox="0 0 154.74 562.26"><g id="Layer_2" data-name="Layer 2"><g id="Layer_1-2" data-name="Layer 1"><g id="revised"><path d="M154.74,296.62s-.06,4.42-.17,12.07c-.55,40.06-2.43,168.68-4.37,215.46-.39,9.42-.78,15.52-1.16,16.91-2.34,8.46-7.76,15.63-16.14,16a12.15,12.15,0,0,1-6.52-1.8c-4.82-3.25-9.85-2.36-14.4.48-2.18,1.36-5,3.5-7.67,5a12.33,12.33,0,0,1-6,1.58H96.11a17,17,0,0,1-8.22-2.12c-2.76-1.53-3.51-2-5.73-3.23-3.52-2-5.59-2.1-9.55.4-1.86,1.18-2.43,1.43-5.17,2.91a16.86,16.86,0,0,1-8,2H59a18.25,18.25,0,0,1-9.15-2.47c-3.49-2-7.29-4.79-10.57-6a9,9,0,0,0-8.68,1c-5.31,3.56-10.06,2.24-15.19-.49-7.66-4.09-10.21-11.46-11.63-19.3-.16-.87-.33-4.72-.51-10.86C2.14,484.49.65,350,.2,308.83c-.07-7.64-.12-12.06-.12-12.06a.24.24,0,0,1-.08-.13v0a106.55,106.55,0,0,1,12.51-39.8c4.16-7.47,8.45-25.15,2.3-37.45-16.37-32.75-3.34-85.13,10.35-108.62,13.41-23,28.71-55.69,24.91-74.37.32.11.65.24,1,.37,8.42,3.27,29.22,4.53,45,2.51l.58-.07a60,60,0,0,0,7-1.26l1-.26a39,39,0,0,0,4.14-1.3c-3.81,18.69,11.5,51.38,24.91,74.38,13.69,23.49,26.72,75.87,10.35,108.62-6.15,12.3-1.86,30,2.31,37.45,10.11,18.13,7.91,31.51,8.28,39.8C154.45,297,154.53,297,154.74,296.62Z" style="fill:#eaeaea;opacity:0.8"/><g id="cap"><path d="M113.75,27.91c0,4-1.11,7.09-4.94,8.46-14.28,5.5-46.72,4.68-57.77.39-.47-.19-.92-.38-1.39-.54-4.33-1.5-4.87-4.76-4.84-7q.16-9.15,0-18.3a5.39,5.39,0,0,1,.32-2.08A5.65,5.65,0,0,1,47.62,6c11.79-7.5,52.58-8.37,63-.33a8.87,8.87,0,0,1,2.51,2.7,5.5,5.5,0,0,1,.64,3C113.75,16.77,113.78,21.78,113.75,27.91Z" style="fill:#8ed5e8"/><path d="M113.08,8.37a6.64,6.64,0,0,1-4.42,4.54c-14.29,5.49-46.72,4.68-57.78.38-.46-.18-.91-.38-1.38-.54A6.56,6.56,0,0,1,45.13,8.8,5.65,5.65,0,0,1,47.62,6c11.79-7.5,52.58-8.37,63-.33A8.87,8.87,0,0,1,113.08,8.37Z" style="fill:#aadff2"/></g><path d="M154.57,308.69c-.55,40.06-2.43,168.68-4.37,215.46a531.66,531.66,0,0,1-70.82,5c-42.6.09-67.59-3.94-76.08-5.05C2.14,484.49.65,350,.2,308.83c3.11,1.81,41.43,6.65,79.23,6.46h0C116.69,315.12,152.45,310.36,154.57,308.69Z" style="fill:#eaeaea;opacity:0.6000000000000001"/><path d="M111.41,488.25c-9.22,7.31-22.53,12.28-38.26,11.36-10.73-.63-20.23-5.12-28.56-11.74-10.66-8.46-19.07-24.15-19.09-35.31,0-35.46,31.83-35.73,35.05-75.94.51-6.25,1.55-12.46,1.29-18.76a16.72,16.72,0,0,1,.46-4.81c.69-2.86,1.66-3.27,3.91-1.24a85.76,85.76,0,0,1,9.26,10.44q13.26,16.54,26.33,33.25c5.83,7.47,12,14.64,16.81,22.95C130.75,439.41,136.83,468.11,111.41,488.25Z" style="fill:#cce7f8;opacity:0.64"/><text transform="translate(45.97 452.56)" style="opacity:0.64;font-size:21.5618896484375px;fill:#db7979;font-family:GoogleSans-Bold, Google Sans;font-weight:700"><tspan style="letter-spacing:-0.0399928749947413em">W</tspan><tspan x="20.35" y="0" style="letter-spacing:-0.01000954175972574em">a</tspan><tspan x="32.24" y="0" style="letter-spacing:-0.017980941532177004em">t</tspan><tspan x="40.86" y="0">er</tspan></text></g></g></g></svg>