<svg xmlns="http://www.w3.org/2000/svg" viewBox="0 0 326.55 347.91"><g id="Layer_2" data-name="Layer 2"><g id="Layer_1-2" data-name="Layer 1"><g id="revised"><path d="M326.55,277.45v17.91c-.37,1.39-.86,2.76-1.1,4.18a54.73,54.73,0,0,1-2.36,10.5A39,39,0,0,1,317.24,321a26.69,26.69,0,0,1-9.84,7.56c-6.06,2.79-12.64,4-18.87,6.33-12.52,4.68-25.66,7.11-38.87,9-6.43.9-13,1.89-19.37.77a78.5,78.5,0,0,0-24.95.08,230.33,230.33,0,0,1-27.61,2.78c-22.77.58-45.51.71-68.25-.66-20.52-1.23-40.94-3.16-60.84-8.66-10.55-2.92-20.39-7.11-28.3-15.09A61.41,61.41,0,0,1,8.75,306.56,70,70,0,0,1,3.6,292.08,116.19,116.19,0,0,1,.42,272c-.64-11.58-.74-23.14,1.06-34.67,1-6.31,1.18-12.73,2.75-19C5.35,214,5.56,209.35,7,205c1.16-3.68,1.65-7.53,2.73-11.26,1.64-5.6,3.21-11.21,5.1-16.74,1.78-5.22,3.66-10.38,5.62-15.54a134.65,134.65,0,0,1,6.7-14.47c1.07-2,16.47-21.8,18.73-25.49C49.6,115.28,58.4,97.81,59.47,92.5c4.27-21.13,27.79-53.69,29.31-57.15,2.91-6.61,11.51-25.81,12.39-29,.24,1.14,12.13.63,31.09,13.22,3.21,1.37,6.26,4.09,9.65,5a45.29,45.29,0,0,1-.88,5.76c-.95,4.88-15,41-16.45,45.77A79.59,79.59,0,0,0,122.41,87c-1,6.26-1.12,12.6,1.32,18.72.86,2.13,11.71,13,14.24,18.07,1.36,2.75,2.38,5.62,3.8,8.35,2,3.83,4.87,5.16,9,4.91a159.92,159.92,0,0,1,20.42.05c11.06.74,22.06,2.28,33.14,2.74,8.28.35,16.42-.29,24.18-3.56,8-3.37,13.55-9.15,16.06-17.35,3.17-10.41-27.8-63.46-31.09-68.64-1.23-2-7.37-11.84-8.34-15.28,0-.11,0-.22,0-.34.45.63.92,1.26,1.3,1.85.73-2.67,4.4-4.53,6-7.41,1.82-3.32,3.67-5.06,6.36-7.7,6.32-4.87,7.38-7.4,14.2-11.16.69-.4,7.6-3.41,8-4.13a76.17,76.17,0,0,1,9.15,8,142.19,142.19,0,0,1,15.49,18.28c3.9,5.37,7.44,11,10.89,16.69,2.81,4.64,5.39,9.44,7.8,14.3,2.76,5.55,5.28,11.23,7.75,16.92,1.93,4.39,3.75,8.85,5.42,13.34s3.3,8.75,5,13.1c2,5.28,3.78,10.64,5.54,16,1.87,5.73,3.78,11.47,5.33,17.28,1.24,4.61,2.54,9.19,3.8,13.78,1.68,6,2.7,12.17,3.91,18.29,1.36,6.85.23,13.74-.8,20.61-1.11,7.41-1.82,14.89-2.44,22.37a48.93,48.93,0,0,0,.4,11c.82,5.75,1.18,11.52,2.85,17.15,1.37,4.56,1.53,9.41,2.71,14.06a70.79,70.79,0,0,1,1.28,10A103.4,103.4,0,0,0,326.55,277.45Z" style="fill:#333"/><path d="M101.17,6.37c1-2.71.93-4.39,3.61-6.27.74-.24,1.66,0,4,.51,5.84,1.9,11.76,2.11,16.81,5.52A124.64,124.64,0,0,1,137.48,15c.58.5,1.2.94,1.8,1.41,2.35,1.85,4.8,1.93,2.63,8.24-3.38-.95-6.44-3.67-9.65-5C113.3,7,101.41,7.51,101.17,6.37Z" style="fill:#292929"/><path d="M206.44,36.47c-1.37-2.1-3.73-4.57-2.67-6.21,1.83-2.85,4.69-7.79,6.62-10.53s6-4.79,8.4-7.24C222.13,9.13,231,3,235.71,2.79c1.67-.07,1.55.71,5.26,3.28-.38.72-7.28,3.74-8,4.12-6.81,3.77-7.87,6.31-14.19,11.17-2.69,2.63-4.54,4.38-6.36,7.69C210.85,31.94,207.17,33.81,206.44,36.47Z" style="fill:#292929"/></g></g></g></svg>