<svg xmlns="http://www.w3.org/2000/svg" viewBox="0 0 40.38 146.85"><g id="Layer_2" data-name="Layer 2"><g id="Layer_1-2" data-name="Layer 1"><g id="revised"><path d="M40.38,6.73V134a11,11,0,0,1-1.67,6.46h0c-1,1.71-2.49,2.65-4.57,3.9s-6.11,2.09-10.84,2.38l-.36,0-.82,0-.55,0H18.82l-.55,0-.81,0-.37,0c-4.73-.29-8.89-1.21-10.84-2.38s-3.56-2.19-4.57-3.9h0A10.91,10.91,0,0,1,0,134V6.73c0,2.51,9,4.55,20.19,4.55S40.38,9.24,40.38,6.73Z" style="fill:#eaeaea"/><ellipse cx="20.19" cy="6.73" rx="20.19" ry="4.55" style="fill:#c5c5c5"/><path d="M36.4,6.3c0,.62-1.38,1.19-3.69,1.63a70.67,70.67,0,0,1-12.52.94A70.75,70.75,0,0,1,7.67,7.93C5.37,7.49,4,6.92,4,6.3c0-1.41,7.26-2.56,16.21-2.56S36.4,4.89,36.4,6.3Z" style="fill:#6d6d6d"/><path d="M33.51,7.27c0,.23-.28.46-.8.66a70.67,70.67,0,0,1-12.52.94A70.75,70.75,0,0,1,7.67,7.93c-.52-.21-.8-.43-.8-.66,0-1.08,6-2,13.32-2S33.51,6.19,33.51,7.27Z" style="fill:#a5a5a5"/><path d="M26.15,7.25c0,.53-2.67.95-6,.95s-6-.42-6-.95v0h0V.93c0-.29,2.66-.51,6-.51s5.95.22,5.95.51V7.21h0A0,0,0,0,1,26.15,7.25Z" style="fill:#eaeaea"/><path d="M40.38,58.18v72.33c0,1.47-9,2.67-20.19,2.67S0,132,0,130.51V58.18c0,1.48,9,2.67,20.19,2.67S40.38,59.66,40.38,58.18Z" style="fill:#226798"/><ellipse cx="20.19" cy="78.38" rx="17.85" ry="24.04" style="fill:#eaeaea"/><ellipse cx="20.19" cy="78.38" rx="15.83" ry="21.43" style="fill:#d44448"/><ellipse cx="20.19" cy="78.38" rx="14.73" ry="21.76" style="fill:#eaeaea"/><path d="M1.73,44.41c2.7.6,12.21,2.25,25.63-.56a.12.12,0,0,1,.1.2l-3.61,3.23a.17.17,0,0,0,.12.31,97.3,97.3,0,0,0,14.7-2.1.09.09,0,0,1,.06.16,42.85,42.85,0,0,1-10.58,3.88,70.37,70.37,0,0,1-16,1.43c-.07,0-.08-.11,0-.15l3-3a.21.21,0,0,0-.13-.37c-1.17-.12-4.35-.46-6.54-.79a24.41,24.41,0,0,1-6.84-2A.1.1,0,0,1,1.73,44.41Z" style="fill:#d44448"/><text transform="translate(10.64 76.79)" style="font-size:8.582280158996582px;fill:#444;font-family:Montserrat-Black, Montserrat;font-weight:800">B<tspan x="6.63" y="0" style="letter-spacing:-0.03493298773120597em">A</tspan><tspan x="13.25" y="0" style="letter-spacing:0.0001137882336521367em">T</tspan><tspan x="-2.46" y="10.3">TE</tspan><tspan x="8.93" y="10.3" style="letter-spacing:-0.01001336456138803em">R</tspan><tspan x="15.23" y="10.3">Y</tspan></text><ellipse cx="20.19" cy="0.95" rx="5.95" ry="0.95" style="fill:#c5c5c5"/></g></g></g></svg>