<svg xmlns="http://www.w3.org/2000/svg" viewBox="0 0 166.96 125.61"><g id="Layer_2" data-name="Layer 2"><g id="Layer_1-2" data-name="Layer 1"><g id="revised"><path id="glass" d="M128.49,112.88c-.91.34-2.17.81-3,1.07a56.58,56.58,0,0,1-22.32,2.34,63.23,63.23,0,0,1-14-3,22.12,22.12,0,0,0-3.4-.81,75.81,75.81,0,0,0-14.05-.21,42.77,42.77,0,0,0-14.6,3.54c-2.44,1.06-4.42,1-6.49-1-1.39-1.38-5.46-8.2-10.58-17.92-5.5-10.43-10.76-22.5-10.79-22.58a4.12,4.12,0,0,1,1.13-4.46A61.37,61.37,0,0,1,35,65.79,67,67,0,0,0,44.89,56,46.28,46.28,0,0,0,52.34,41.9a65.82,65.82,0,0,1,4.83-10.85A59.13,59.13,0,0,1,70.11,15,62.05,62.05,0,0,1,85.77,5.09a51.39,51.39,0,0,1,7-2.63A56.69,56.69,0,0,1,114.55.24a55.4,55.4,0,0,1,13.63,3,58.12,58.12,0,0,1,8.94,4,56.69,56.69,0,0,1,13.76,10.63A45.86,45.86,0,0,1,157,25.47c2.34,3.87,6.28,11.58,7.29,15.06a61.19,61.19,0,0,1,2.37,23.28A58.17,58.17,0,0,1,160.77,84a59,59,0,0,1-11.72,16,66,66,0,0,1-6.68,5.59C138.52,108.54,129.21,112.6,128.49,112.88Z" style="fill:#f7f6f3;opacity:0.6000000000000001"/><path d="M28.25,123.56A21.83,21.83,0,0,1,2.39,112l-.26-.56A21.81,21.81,0,0,1,5.75,87.31Z" style="fill:#c1c1c1"/><path d="M50.79,113.05q-2.76,1.38-5.54,2.73c-1.15-1.91-2.3-3.83-3.46-5.73-1-1.64-2-3.27-3-4.9-1.15-1.84-2.32-3.67-3.46-5.51S33.07,96,31.94,94.16c-1.5-2.42-3-4.83-4.53-7.25-.78-1.26-1.55-2.54-2.33-3.81l-3.63-5.84L30.2,73c-.68.9,3.13,10.07,8.68,20.86S49.65,113.05,50.79,113.05Z" style="fill:#c1c1c1"/><path d="M43.88,119.78a3.23,3.23,0,0,1-4.2-1.31c-.72-1.19-1.43-2.39-2.16-3.58q-1.62-2.64-3.27-5.28c-1.16-1.87-2.33-3.72-3.49-5.59s-2.24-3.71-3.38-5.55c-1.5-2.42-3-4.83-4.52-7.24Q21.24,88.62,19.64,86L16,80.1c-.7-1.75-.23-3.36,1.21-4.12a3.27,3.27,0,0,1,4.28,1.28q1.82,2.91,3.62,5.84c.78,1.27,1.55,2.55,2.33,3.81L32,94.16c1.12,1.82,2.22,3.66,3.35,5.48s2.3,3.67,3.45,5.51c1,1.63,2,3.26,3,4.9,1.17,1.9,2.31,3.82,3.46,5.73A3,3,0,0,1,43.88,119.78Z" style="fill:#e6e6e6"/><path d="M32.53,125.33a3.26,3.26,0,0,1-4.24-1.61C28.14,123.41,5.54,87,5.11,86.36a3.37,3.37,0,0,1-.51-3.43,2.75,2.75,0,0,1,2.61-1.79,3.3,3.3,0,0,1,3.29,2.27l2.94,4.73c1,1.69,2.09,3.37,3.13,5,1.2,1.92,2.4,3.83,3.59,5.75s2.23,3.65,3.36,5.46,2.3,3.67,3.45,5.51,2.26,3.69,3.4,5.54,2.35,3.78,3.53,5.67C34.63,122.94,34.09,124.61,32.53,125.33Z" style="fill:#e6e6e6"/><path d="M39.68,118.47c-2,.77-3.86,1.74-5.78,2.65q-1.77-2.84-3.53-5.67c-1.14-1.85-2.26-3.7-3.4-5.54s-2.31-3.67-3.45-5.51-2.24-3.64-3.36-5.46-2.39-3.83-3.59-5.75c-1-1.68-2.09-3.36-3.13-5L10.5,83.41A22.24,22.24,0,0,1,16,80.1L19.64,86q1.61,2.61,3.22,5.22c1.5,2.41,3,4.82,4.52,7.24,1.14,1.84,2.25,3.7,3.38,5.55s2.33,3.72,3.49,5.59,2.19,3.52,3.27,5.28C38.25,116.08,39,117.28,39.68,118.47Z" style="fill:#c2c2c2"/><path d="M50.93,113h0a.08.08,0,0,1,0,0l-.06,0h0c-1.14,0-6.37-8.43-11.91-19.21S29.52,73.88,30.2,73l.06,0,.08,0h0c.42,0,1.39,1.15,2.71,3.11a175.09,175.09,0,0,1,9.19,16.09c4.64,9,8.06,16.93,8.67,19.8A1.67,1.67,0,0,1,50.93,113Z" style="fill:#e6e6e6"/><path d="M113.42,73.53a13.91,13.91,0,0,0-4-.73,50.82,50.82,0,0,0-10.58,1c-.47.08-.87.14-1.23-.33A41.16,41.16,0,0,1,90.9,60.42a1,1,0,0,1,.33-1.14c1-.92,2-1.85,3-2.8a28,28,0,0,0,5.85-7.23c2-4,1.19-7.21-2.32-10.1a5.37,5.37,0,0,0-7.45.5,12.33,12.33,0,0,0-3.46,6.51,35.08,35.08,0,0,0-.1,11.7,1.14,1.14,0,0,1-.45,1.26,171.18,171.18,0,0,1-14.84,9.93c-5.15,3.12-10.41,6.06-15.73,8.87-4.25,2.24-8.51,4.46-12.84,6.55l-.11,0-3.37,1.71-1.2.61a.5.5,0,0,0-.21.67l1.06,2.09a.49.49,0,0,0,.67.22l1.48-.76L44.3,87.5h0q5-2.56,10-5.25C60.88,78.65,67.42,75,73.85,71.07c4.56-2.76,9.11-5.53,13.44-8.65.43-.31.63-.21.79.27a48.94,48.94,0,0,0,5.83,11.66c.29.43.18.56-.26.7A315.48,315.48,0,0,0,63.93,86.24q-9.51,4-18.82,8.37l-.8.38h0L43,95.59a.5.5,0,0,0-.23.67l1,2.15a.49.49,0,0,0,.66.23l1-.47.77-.37.19-.09h0Q58.54,91.7,71,86.52a210.59,210.59,0,0,1,23.78-8.45,2.21,2.21,0,0,1,2.57.7,32.17,32.17,0,0,0,8.77,6.59,12.06,12.06,0,0,0,7.55,1.17A5.17,5.17,0,0,0,117.89,83,7.64,7.64,0,0,0,113.42,73.53ZM90.14,55.71a15,15,0,0,1-.29-3,25,25,0,0,1,1-7.74,7.53,7.53,0,0,1,.59-1.47c1-1.86,2.5-2.54,4.13-1.87a4,4,0,0,1,2.29,4.51,10.71,10.71,0,0,1-1.6,3.25,34.87,34.87,0,0,1-5.59,6.11C90.55,55.61,90.42,55.79,90.14,55.71ZM112,83.45a6.19,6.19,0,0,1-2.28-.43A24.82,24.82,0,0,1,101,77.47a3.14,3.14,0,0,1-.39-.51s-.15-.06-.15-.09.11-.12.2-.1c3.71-.76,7.43-1.25,11.19-.37a3.83,3.83,0,0,1,3.19,3.91A3,3,0,0,1,112,83.45Z" style="fill:#6c6c6c;opacity:0.3"/><path id="glass-2" data-name="glass" d="M128.49,112.88c-.91.34-2.17.81-3,1.07a56.58,56.58,0,0,1-22.32,2.34,63.23,63.23,0,0,1-14-3,22.12,22.12,0,0,0-3.4-.81,75.81,75.81,0,0,0-14.05-.21,42.77,42.77,0,0,0-14.6,3.54c-2.44,1.06-4.42,1-6.49-1-1.39-1.38-5.46-8.2-10.58-17.92-5.5-10.43-10.76-22.5-10.79-22.58a4.12,4.12,0,0,1,1.13-4.46A61.37,61.37,0,0,1,35,65.79,67,67,0,0,0,44.89,56,46.28,46.28,0,0,0,52.34,41.9a65.82,65.82,0,0,1,4.83-10.85A59.13,59.13,0,0,1,70.11,15,62.05,62.05,0,0,1,85.77,5.09a51.39,51.39,0,0,1,7-2.63A56.69,56.69,0,0,1,114.55.24a55.4,55.4,0,0,1,13.63,3,58.12,58.12,0,0,1,8.94,4,56.69,56.69,0,0,1,13.76,10.63A45.86,45.86,0,0,1,157,25.47c2.34,3.87,6.28,11.58,7.29,15.06a61.19,61.19,0,0,1,2.37,23.28A58.17,58.17,0,0,1,160.77,84a59,59,0,0,1-11.72,16,66,66,0,0,1-6.68,5.59C138.52,108.54,129.21,112.6,128.49,112.88Z" style="fill:#f7f6f3;opacity:0.6000000000000001"/></g></g></g></svg>