<svg xmlns="http://www.w3.org/2000/svg" viewBox="0 0 104.39 38.9"><g id="Layer_2" data-name="Layer 2"><g id="Layer_1-2" data-name="Layer 1"><g id="revised"><path d="M90.81,32.5c-2.25.41-4.49.82-6.74,1.21-2.07.36-4.15.69-6.23,1-1.73.27-3.47.53-5.2.77s-3.55.44-5.33.66-3.34.45-5,.61-3.25.32-4.88.45-3.42.33-5.14.41l-.11-.24A29.55,29.55,0,0,1,48,22.2a42,42,0,0,1,1.08-9.74,53.54,53.54,0,0,1,2.48-7.83c.11,0,1.61-.22,4-.4C70,3.18,95.43-.12,95.49,0a9.06,9.06,0,0,1-3.43,2.5c-.37.17-.74.33-1.1.51-.14.06-.35.11-.27.32.17.43-.1.71-.31,1a16,16,0,0,1-1.69,1.89,1.86,1.86,0,0,0-.62,1.56c0,.33.16.58.56.57a1.64,1.64,0,0,1,.91.38c.25.17.48.42.77.45.63.05.56.39.44.83-.19.67-.39,1.35-.54,2s0,.73.62.84a12.14,12.14,0,0,0,1.63.09.18.18,0,0,1,.15.26,1.3,1.3,0,0,0-.12.7c0,.46.05.91.08,1.37s.09.91.12,1.37c0,.11,0,.35-.19.25-.53-.27-.28.18-.28.3a1.49,1.49,0,0,0,.14.56,1.7,1.7,0,0,1-.54,2.46c-.19.14-.47.37-.31.65s.47.17.73.16a4,4,0,0,0,1.15-.22l.37-.11c.75-.16,1,.05.82.66s-.41.94-.6,1.41c-.34.82-.25,1,.64,1.06l1.69.16c.12,0,.32,0,.31.21s-.19.21-.33.17c-.65-.18-.52.18-.4.55a9.31,9.31,0,0,0,3.46,4.81.48.48,0,0,0,.37.15C99.78,30.23,93.86,31.94,90.81,32.5Z" style="fill:#f0eee8"/><path d="M104.39,19.11v-.84l-.07-.08a4.35,4.35,0,0,1-1.2-3.29,6.3,6.3,0,0,0-.42-1.79,2.22,2.22,0,0,0-1.3-1.5.85.85,0,0,1-.55-1c.07-.58.11-1.16.14-1.74a1,1,0,0,0-.72-1.15,1.32,1.32,0,0,1-.89-1.25c-.1-1,.08-2.08-.07-3.11A7.31,7.31,0,0,0,99,2,2.23,2.23,0,0,0,97.82.71,5.65,5.65,0,0,0,95.49,0a9.06,9.06,0,0,1-3.43,2.5c-.37.17-.74.33-1.1.51-.14.06-.35.11-.27.32.17.43-.1.71-.31,1a16,16,0,0,1-1.69,1.89,1.86,1.86,0,0,0-.62,1.56c0,.33.16.58.56.57a1.64,1.64,0,0,1,.91.38c.25.17.48.42.77.45.63.05.56.39.44.83-.19.67-.39,1.35-.54,2s0,.73.62.84,1.27.06,2,.11a1,1,0,0,0-.33.94c0,.46.05.91.08,1.37s.09.91.12,1.37c0,.11,0,.35-.19.25-.53-.27-.28.18-.28.3a1.49,1.49,0,0,0,.14.56,1.7,1.7,0,0,1-.54,2.46c-.19.14-.47.37-.31.65s.47.17.73.16a4,4,0,0,0,1.14-.22,2.67,2.67,0,0,1,.62-.15c.57-.07.77.16.58.7s-.41.94-.6,1.41c-.34.82-.25,1,.64,1.06l1.69.16c.12,0,.32,0,.31.21s-.19.21-.33.17c-.65-.18-.52.18-.4.55a9.31,9.31,0,0,0,3.46,4.81.48.48,0,0,0,.37.15,1.9,1.9,0,0,0,.63-.9c.12-.39.3-.48.71-.42.89.15,1.15-.07,1.31-1a3.13,3.13,0,0,0,0-1.1,1.72,1.72,0,0,1,.82-1.8,1.72,1.72,0,0,0,.35-2.78c-.14-.17-.33-.36-.18-.56A8.28,8.28,0,0,0,104.39,19.11ZM93.9,10.74c-.34,0-.42-.29-.42-.56s.07-.56.41-.57.36.31.44.53S94.24,10.73,93.9,10.74Zm.59-2.82A1,1,0,0,1,94.1,7a2.54,2.54,0,0,1,1.14-1.95c.47-.27.8-.1,1,.43a2.68,2.68,0,0,1-.92,2.29C95,7.93,94.78,8.11,94.49,7.92Zm.89,9.6c-.31,0-.69-.05-.71-.39s.41-.39.67-.46.73.06.74.41S95.69,17.51,95.38,17.52Zm2.22-5.4c0,.66-.34,1.25-.72,1.27s-.75-.58-.76-1.28a1.74,1.74,0,0,1,.28-1,.51.51,0,0,1,.93,0A1.69,1.69,0,0,1,97.6,12.12ZM97.7,3c-.36,0-.67-.14-.72-.55s.3-.6.78-.61c.31,0,.68.14.68.58S98.08,3,97.7,3Zm2.53,5.63c.25,0,.29.19.34.34s-.07.44-.29.47-.33-.18-.34-.38S100,8.69,100.23,8.66Zm-1.15,11.9c.32,0,.31.38.33.65s0,.68-.31.69-.33-.38-.33-.66S98.77,20.57,99.08,20.56Zm.61,4.91c-.36,0-.85,0-.86-.42s.48-.43.83-.43.84,0,.85.4S100,25.43,99.69,25.47Zm.93-7.1A1.27,1.27,0,0,1,99.3,17.2a1.34,1.34,0,0,1,2.65,0A1.28,1.28,0,0,1,100.62,18.37Z" style="fill:#434343"/><path d="M52.28,37.63c-1.2.1-2.39.21-3.59.29-6.3.38-12.61.7-18.93.86-4.08.1-8.16.17-12.24.08-3.23-.07-6.45-.21-9.67-.57a6.29,6.29,0,0,1-4.86-3A18.45,18.45,0,0,1,.33,27.73,35.68,35.68,0,0,1,3.2,8.29a11,11,0,0,1,1.22-2.1,2.22,2.22,0,0,1,1.69-.94c1.6-.17,29.66.55,45.48-.62a53.54,53.54,0,0,0-2.48,7.83A42,42,0,0,0,48,22.2a29.55,29.55,0,0,0,4.14,15.19Z" style="fill:#d99045"/><path d="M100.63,16.05A1.27,1.27,0,0,1,102,17.22a1.28,1.28,0,0,1-1.33,1.15A1.27,1.27,0,0,1,99.3,17.2,1.27,1.27,0,0,1,100.63,16.05Z" style="fill:#6a6a6a"/><path d="M94.1,7a2.55,2.55,0,0,1,1.13-1.95c.48-.27.81-.1,1,.43a2.68,2.68,0,0,1-.92,2.29c-.24.14-.49.32-.78.13A1,1,0,0,1,94.1,7Z" style="fill:#6a6a6a"/><path d="M97.6,12.12c0,.66-.34,1.25-.72,1.27s-.75-.58-.76-1.28a1.74,1.74,0,0,1,.28-1,.51.51,0,0,1,.93,0A1.69,1.69,0,0,1,97.6,12.12Z" style="fill:#949494"/><path d="M97.76,1.87c.31,0,.68.14.68.58S98.08,3,97.7,3,97,2.89,97,2.48,97.28,1.88,97.76,1.87Z" style="fill:#919191"/><path d="M99.69,25.47c-.36,0-.85,0-.86-.42s.48-.43.83-.43.84,0,.85.4S100,25.43,99.69,25.47Z" style="fill:#929292"/><path d="M95.34,16.67c.34,0,.73.06.74.41s-.39.43-.7.44-.69-.05-.71-.39S95.08,16.74,95.34,16.67Z" style="fill:#c8c8c8"/><path d="M94.33,10.14c-.06.29-.09.59-.43.6s-.42-.29-.42-.56.07-.56.41-.57S94.25,9.92,94.33,10.14Z" style="fill:#686868"/><path d="M99.41,21.21c0,.28,0,.68-.31.69s-.33-.38-.33-.66,0-.67.31-.68S99.39,20.94,99.41,21.21Z" style="fill:#686868"/><path d="M100.57,9c0,.24-.07.45-.29.47s-.33-.18-.34-.38.06-.4.29-.43S100.52,8.85,100.57,9Z" style="fill:#c6c6c6"/></g></g></g></svg>