<svg xmlns="http://www.w3.org/2000/svg" viewBox="0 0 913.91 627.85"><title>Jaki Title Fix</title><g id="Layer_2" data-name="Layer 2"><g id="Layer_1-2" data-name="Layer 1"><path d="M138.1,291.18c.06,0-5.67-165.13-6-177-4.08-1.48,20-1.78,50.65-4.88,37.16-2.23,71.6-8,71-4.16,12,13.18,14.65,20.81,17.61,16.83,102-59,57.5-55.15,122.32-8.32,105.08-54,66-49.61,116.71-14.35,106.05-31.15,73.57-18.19,119.35-76.5L740.22,55.89c.06.66,15.71,43.79,14.78,39.26,8,1.33,79.38-1.31,70.52,2.37,1.24,11.69,6.59,83.45,7,79l70.3,46.3c.06,0,2,15.1,4.37,32.89,3.68,30.73,7.86,53.27,6.5,52.11L831.32,450.5c-.91-.32-52-43.29-48.86-39.88-43.8,4.34-124.59,12-161.36,12.31l26.42,113.48-91.28,40.38-45.82-3.31-84.15,54.37-96-38.37-15.63-118.1L163.38,498.2,45,448.56,15,340l91.78-51.09Z" style="fill:#96c8d9"/><path d="M123.07,268.41c.05,0-5.68-165.13-6-177-4.08-1.48,20-1.78,50.66-4.88,37.15-2.23,71.59-8,71-4.16,12,13.18,14.65,20.81,17.62,16.83,102-59,57.49-55.15,122.31-8.32,105.08-54,66-49.61,116.71-14.35C601.34,45.35,568.86,58.31,614.64,0L725.18,33.12c.07.66,15.71,43.79,14.78,39.26,8,1.33,79.38-1.31,70.52,2.37,1.24,11.69,6.59,83.45,7,79l70.3,46.3s2,15.1,4.37,32.89c3.68,30.73,7.86,53.27,6.49,52.11L816.28,427.73c-.91-.32-52-43.29-48.86-39.88-43.8,4.34-124.58,12-161.36,12.31l26.42,113.48L541.21,554l-45.82-3.31-84.16,54.37-96-38.37-15.62-118.1-151.3,26.82L29.93,425.79,0,317.25l91.79-51.09Z" style="fill:#fff"/><path d="M81.37,412.24c-.43-12.53,17.32-82.82,31.72-70.26,39,40,57.06-1.86,50.87-35.79-8.74-165.56-20.08-147,18.85-153.49,12.64-.73,36.92-5.85,41.86,6.8,17.33,86.79,27.89,220.32-22,260.29C178.38,440.58,92.84,444.45,81.37,412.24Z" style="fill:#ddc344"/><path d="M255.71,407.9c-3-69.12-7.2-288.36,54.35-279.71,74.77-6,120.34,190.87,139,235.21,6.82,28.25,4.46,20-25.82,35.12-40.39,23.61-41.41-43-56.78-68.94-3.88-16.81-20.64-6.61-31.69-4.8-31.25,3.46-9.24,46.37-14.42,71.08C323.61,423.09,248.92,431.87,255.71,407.9Zm71.72-119.11c62-6.72-15.78-134.87-11-45.19C317.17,260.34,316.17,289.2,327.43,288.79Z" style="fill:#ddc344"/><path d="M440.39,265.38c-12-56.47-31.24-129.78-14.89-132.26,21.57-10.06,56.75-15.83,62.41-5.93C502.4,151.53,486.62,226,510,198.26c36.26-40.6,30.43-80.88,38.59-83.7,20.18-5.24,72.5-16.74,67.23,8.38,1.86,47.08-44,77.37-66.8,110.06,43.69,20.87,69.49,69.3,78.78,116.73-12,12-39.06,13.42-56.54,14.34-9.68-23.2-12.33-45.3-34.85-60.67-27.11-23.56-2.4,44.9-6.05,55.51,4.76,18.07-16,20.14-30.86,22.41-43.62,10.59-35.94-8.25-42.58-33.12C455.82,342.48,440.44,265.6,440.39,265.38Z" style="fill:#ddc344"/><path d="M658.61,309.1c-4.8-14.9-24.12-158-22-151.48-6.76-15.06,50.17-13.84,55.06-11.44,12.54,11.39,9.92,25.21,12.1,37.09,6.67,57.1,14.33,107.73,19.08,163.06-.8,5.48-13.64,5.93-13.88,6.65C650.85,363.83,671,343.59,658.61,309.1Z" style="fill:#ddc344"/><path d="M749.61,286.92c1.7-5.55,13.65-9.74,18.35-8.77,4.37,1.29,10.43,4,13.07,7.79,2.07,2.25,2,5.06,1.88,7.22l.16,3.34c.72,6.81,1.42,14.93,8.07,16.57,4.63,1.16,7.35-1.62,10.27-5.65a2.82,2.82,0,0,0,.79-1c.68-2,0-4.58-.51-6.75-1.89-7.22-4.77-13.46-9.29-18.74-1.94-2-3.5-3.18-5.18-4.64-1.56-1.19-3.58-2.33-4.68-3.58-8.73-8.93-15.72-22.28-12.31-35.33,1.23-4.83,2.95-7.3,5.79-9.82,0,0,1.6-2.07,2.53-3.5a30.4,30.4,0,0,0,2.65-3.25l3.17-2.84a32.17,32.17,0,0,1,4-3.23c5.54-4,21.14-6.71,27.09-6.84a94.4,94.4,0,0,1,14.25,1.85c6.85,1.71,13.06,7.79,18.44,13.15a.76.76,0,0,0,.51.4l.58.85.4.14a10.74,10.74,0,0,1,2.33,2.12c.64,1.31,4,7.3,4.74,9.08l.58.85a44.39,44.39,0,0,1,3,4.75c1.4,3.54,2.06,15.59,1.11,19-2.33,9.27-9.26,9.06-16.06,8.47l.07-.2-3.92,0-12.2-3.34c-2.94-1-3.75-4.36-4.55-9-.06-.46-.25-1.18-.31-1.64-1.06-5.18-2.3-11.08-8.11-12.65-6.59-1.83-10.38,4.08-12.08,10.28-.35,1.63.54,4.78,1.24,6.55l-.2-.06c.9,1.84,3.11,3,4.67,4.23l1.94,1.33,11.36,9c3.63,2.78,6.73,7.13,9.05,10.56,6.43,9.88,9.67,19.53,6.39,32.19-.13.39-.34,1.63-.34,1.63-9.5,19.27-32.66,31.84-52.95,26.59-13.64-3.61-35.82-16.08-38.91-32.47-.24-1.84.24-4.51.73-7.19l.93-7.78a59.22,59.22,0,0,1,1.48-9.34Z" style="fill:#ddc344"/><path d="M623.47,82.62c20.71-46.29,82.62-19.39,69.71,22.36C674.62,143.58,611.13,117.6,623.47,82.62Z" style="fill:#ddc344"/><path d="M634.59,48.93c1.69-4.8,6.68-5.37,11.68-.17,20.51,14.49,13.11,16-3.57,22.25C625.66,79.83,633.86,57.3,634.59,48.93Z" style="fill:#ddc344"/><path d="M691.71,54.61c5.06-.62,7.79,3.59,5.36,10.38-3.84,24.83-8.49,18.87-21.51,6.73C660.07,60.38,683.89,57.68,691.71,54.61Z" style="fill:#ddc344"/><path d="M319.13,356.9c12.77,33.94,19.73-7.19,12.7-15.24C318.21,337.42,314.88,345.87,319.13,356.9Z" style="fill:#fea621"/><path d="M368.85,341.91c8.5,33.1-15.5,8.95-19.78-3C353.41,327.2,366.28,328.19,368.85,341.91Z" style="fill:#fea621"/><path d="M341.51,351.93c-38.6,10.77-49.06-90.74-27.62-96.05,30.79-14.44,40.53,11.64,44.09,42.64C363.94,326.15,367.67,343.41,341.51,351.93Z" style="fill:#fea621"/><path d="M78.88,398.75c-.43-12.53,17.33-82.83,31.72-70.26,39,40,57.07-1.86,50.88-35.79-8.75-165.56-20.09-147,18.84-153.49,12.64-.73,36.92-5.85,41.87,6.8,17.32,86.78,27.89,220.32-22,260.29C175.89,427.09,90.36,431,78.88,398.75Z" style="fill:#f7e05c"/><path d="M249.71,394.86c-3-69.12-7.2-288.35,54.35-279.7,74.78-6,120.34,190.86,139,235.2,6.82,28.26,4.46,20-25.82,35.12-40.39,23.62-41.4-43-56.78-68.94-3.87-16.81-20.64-6.61-31.69-4.8-31.25,3.46-9.24,46.37-14.42,71.08C317.61,410.05,242.92,418.83,249.71,394.86Zm71.72-119.1c62-6.73-15.78-134.88-11-45.2C311.17,247.3,310.17,276.16,321.43,275.76Z" style="fill:#f7e05c"/><path d="M435.5,253.18c-12-56.47-31.24-129.78-14.89-132.26,21.57-10.06,56.75-15.83,62.41-5.93,14.49,24.34-1.29,98.81,22.13,71.07,36.26-40.6,30.43-80.88,38.59-83.7,20.18-5.24,72.5-16.74,67.23,8.37,1.86,47.09-44,77.38-66.8,110.07,43.69,20.87,69.49,69.29,78.78,116.73-12,12-39.06,13.42-56.54,14.34-9.68-23.2-12.33-45.3-34.85-60.67-27.11-23.56-2.4,44.9-6,55.51,4.76,18.07-16,20.14-30.86,22.41C451,379.71,458.71,360.87,452.07,336,450.93,330.28,435.55,253.4,435.5,253.18Z" style="fill:#f7e05c"/><path d="M651.7,296.18c-4.8-14.9-24.13-158-22-151.48-6.76-15.06,50.17-13.83,55.06-11.44,12.54,11.39,9.92,25.21,12.09,37.09,6.68,57.1,14.34,107.73,19.09,163.06-.8,5.48-13.64,5.93-13.88,6.65C643.94,350.91,664.11,330.67,651.7,296.18Z" style="fill:#f7e05c"/><path d="M294.2,277.22c-2.24,34.11,16.88,5.93,18.89-6.55C306.66,259.92,294.19,263.26,294.2,277.22Z" style="fill:#fea621"/><path d="M357.06,265.76c12.51,31.81-14.28,10.79-20-.49C339.74,253.3,352.87,252.38,357.06,265.76Z" style="fill:#fea621"/><path d="M295.46,255c1.78-36.67,48.65-35.66,52.54-3.79C347.13,284.05,296.43,283.06,295.46,255Z" style="fill:#e48916"/><path d="M747.13,273.42c1.69-5.54,13.65-9.73,18.35-8.76,4.37,1.29,10.42,4,13.06,7.79,2.07,2.25,2,5.06,1.89,7.22l.16,3.34c.71,6.81,1.41,14.93,8.07,16.57,4.63,1.16,7.34-1.62,10.26-5.65a2.89,2.89,0,0,0,.8-1c.67-1.95,0-4.58-.52-6.74-1.88-7.22-4.76-13.46-9.28-18.75-1.95-2-3.5-3.17-5.19-4.63-1.56-1.2-3.57-2.33-4.67-3.58-8.74-8.93-15.73-22.28-12.32-35.33,1.23-4.83,3-7.3,5.8-9.82,0,0,1.59-2.08,2.52-3.51a27.5,27.5,0,0,0,2.65-3.24l3.18-2.84a32.17,32.17,0,0,1,4-3.23c5.53-4,21.13-6.71,27.09-6.85a94.22,94.22,0,0,1,14.24,1.86c6.85,1.71,13.07,7.79,18.44,13.15a.75.75,0,0,0,.52.39l.58.86.39.14a10.74,10.74,0,0,1,2.33,2.12c.64,1.31,4,7.3,4.75,9.07l.58.86a46.88,46.88,0,0,1,3,4.74c1.4,3.55,2.06,15.6,1.1,19-2.32,9.26-9.25,9.06-16.05,8.46l.07-.19-3.93,0-12.2-3.34c-2.93-1-3.74-4.36-4.55-9-.06-.46-.24-1.18-.3-1.64-1.06-5.18-2.31-11.08-8.11-12.65-6.59-1.84-10.38,4.08-12.09,10.28-.34,1.63.54,4.78,1.24,6.55l-.19-.07c.89,1.84,3.11,3,4.66,4.24l2,1.33,11.35,9c3.64,2.79,6.73,7.14,9.05,10.57,6.44,9.88,9.67,19.53,6.4,32.19a16.28,16.28,0,0,0-.35,1.63c-9.49,19.27-32.66,31.84-52.95,26.59-13.63-3.62-35.81-16.09-38.91-32.48-.24-1.83.25-4.51.74-7.18l.93-7.78a60.19,60.19,0,0,1,1.47-9.34Z" style="fill:#f7e05c"/><path d="M293.49,252c2.21-37.69,51.87-36.49,55.77-4.15C348.23,281.36,294.38,280.87,293.49,252Z" style="fill:#fea621"/><path d="M292.32,225c-.89-6.29,9.18-3.56,12.33-1.94C327.29,225.38,291.16,259.56,292.32,225Z" style="fill:#fea621"/><path d="M320.48,252.87c-.94-1.6,6.47-3.86,4.12.6C324.42,255.91,322.61,255.87,320.48,252.87Z"/><path d="M334.61,213.61c5.24-3.59,7.28,6.64,7.23,10.18C349.84,245.09,303.14,228,334.61,213.61Z" style="fill:#fea621"/><path d="M314,246.62c1.29,6.81-8.43,3.5-3.06-3.33C311.72,243.31,312.46,243.46,314,246.62Z"/><path d="M312.14,244.5c-.31-.45-.58-.4,0,0C312.52,244.92,310.45,245.53,312.14,244.5Z" style="fill:#fff"/><path d="M332.89,243.06c1.3,6.81-8.43,3.5-3.06-3.33C330.65,239.75,331.4,239.9,332.89,243.06Z"/><path d="M331.07,240.94c-.31-.45-.58-.4,0,0C331.46,241.36,329.39,242,331.07,240.94Z" style="fill:#fff"/><path d="M737.69,174.88c6.12-45.08-4.49-61.9,28.64-55.5,8.86-.43,19.43,1.19,21.13,12.23C781.25,176.5,712.53,273.7,737.69,174.88Z" style="fill:#df8e22"/><path d="M317.24,258.92l.54.43a4.52,4.52,0,0,0,.54.27,3.93,3.93,0,0,0,.42.29,2.61,2.61,0,0,0,2.64-.44,4,4,0,0,0,1.47-1.78,3,3,0,0,0,.22-1.11,4.86,4.86,0,0,0,.19-.61l.09-.68a5.62,5.62,0,0,1,.43.59,3.2,3.2,0,0,1,.29.71,4.09,4.09,0,0,1-.29,1.47,5,5,0,0,1-1.84,2.24,4.09,4.09,0,0,1-2.85.74,4.45,4.45,0,0,1-.77-.22,7,7,0,0,1-.67-.44,4.16,4.16,0,0,1-.33-.72A6.94,6.94,0,0,1,317.24,258.92Z"/><path d="M330.37,256.45a6.31,6.31,0,0,1,.18.72,3.58,3.58,0,0,1,0,.79,4.3,4.3,0,0,1-.47.65,3.68,3.68,0,0,1-.63.49,4.18,4.18,0,0,1-2.93.35A5,5,0,0,1,324,258a3.89,3.89,0,0,1-.81-1.26,3.84,3.84,0,0,1,0-.76,6.65,6.65,0,0,1,.19-.71l.34.6a4.13,4.13,0,0,0,.39.5,2.81,2.81,0,0,0,.61.95,4,4,0,0,0,2,1.13,2.52,2.52,0,0,0,2.62-.55,4,4,0,0,0,.3-.42c.11-.14.27-.28.4-.45Z"/><path d="M619.52,80.15c20.7-46.29,82.62-19.38,69.71,22.37C670.66,141.11,607.18,115.14,619.52,80.15Z" style="fill:#f7e05c"/><path d="M630.63,46.47c1.7-4.81,6.69-5.38,11.69-.18,20.51,14.49,13.1,16-3.57,22.25C621.7,77.36,629.9,54.83,630.63,46.47Z" style="fill:#f7e05c"/><path d="M687.75,52.14c5.06-.62,7.79,3.6,5.37,10.39-3.84,24.82-8.49,18.86-21.51,6.72C656.12,57.92,679.94,55.22,687.75,52.14Z" style="fill:#f7e05c"/><path d="M736.77,167.8c6.12-45.08-4.48-61.9,28.64-55.51,8.87-.42,19.44,1.2,21.14,12.24C780.34,169.42,711.62,266.62,736.77,167.8Z" style="fill:#fea621"/><path d="M369,495.27c55.5-14.77,18.86,40.74-14,30.78-22.72-16.62-8.31-78.75-12.84-101.39-.32-50-7.71-74.64-3-90.28C366.24,317.45,352.35,523.15,369,495.27Z" style="fill:#fea621"/><path d="M423.76,545.31c-23.15,2.77-13.45-54.27-17.26-76.85-1.06-11.09.36-29.26,15.31-22C431,465.72,436.93,552.33,423.76,545.31Zm-1.29-124.2c-.16,8.69-8.36,13.49-13.57,11.12C393.89,424.58,418.12,400.44,422.47,421.11Z" style="fill:#fea621"/><path d="M490.57,452.91c31.87,18.39-37.66,13.29-32.59,23.65-.91,12.36,9.16,48.71-7.23,46.51-14.07-8.14-9.81-83-15.34-95.44-4.16-28.29-5.06-23.31,20-27.35,24-2.95,46.39-12.43,54.75-4.17,8,15.52-23.32,15.91-50,18.16-23.18-1.89-6.16,17.91-4.69,43.16C479,452.44,476.23,452.3,490.57,452.91Z" style="fill:#fea621"/><path d="M569.54,392.93c23,24.08-51.6,6-39.95,17.67,8.25,57.73,16.47,15.75,39.51,31.59,3.74,12.07-37.09,8.33-31.16,13.25.67,7.71,2.61,32.72,5,30.61,1.52,1.33,48.23-8.9,33.21,13.16-75.34,30.25-46.46-31.33-55.24-68.16.39-12.06-7.12-29.05,2.35-35C536.66,393.82,557.43,387.48,569.54,392.93Z" style="fill:#fea621"/></g></g></svg>