<svg xmlns="http://www.w3.org/2000/svg" viewBox="0 0 1003.78 689.59">
    <g id="prefix__Layer_2" data-name="Layer 2">
        <g id="prefix__Layer_1-2" data-name="Layer 1">
            <path
                d="M151.68 319.81c.06.05-6.23-181.36-6.63-194.43-4.49-1.63 21.95-2 55.63-5.37 40.81-2.44 78.63-8.8 77.94-4.56 13.18 14.47 16.09 22.85 19.35 18.48 112-64.82 63.15-60.57 134.34-9.14C547.73 65.52 504.81 70.31 560.5 109c116.48-34.21 80.81-20 131.09-84L813 61.39c.08.72 17.26 48.09 16.24 43.12 8.8 1.46 87.18-1.45 77.45 2.6 1.37 12.84 7.24 91.66 7.65 86.81l77.21 50.86c.06-.05 2.16 16.58 4.81 36.11 4 33.77 8.63 58.51 7.13 57.25L913.06 494.8c-1-.36-57.1-47.55-53.66-43.81-48.11 4.78-136.84 13.15-177.23 13.53l29 124.63-100.23 44.35-50.33-3.62-92.42 59.71-105.4-42.15-17.16-129.71-166.18 29.45-130.06-54.52-32.87-119.2 100.81-56.12z"
                fill="#96c8d9" />
            <path style="fill: #fff"
                d="M135.17 294.8c.06.05-6.23-181.36-6.64-194.43-4.49-1.62 21.95-2 55.63-5.37 40.81-2.44 78.64-8.8 78-4.56 13.17 14.47 16.09 22.85 19.35 18.48 112-64.82 63.14-60.57 134.34-9.14C531.21 40.51 488.3 45.3 544 84c116.49-34.21 80.82-20 131.09-84l121.4 36.38c.07.72 17.26 48.09 16.23 43.12 8.81 1.46 87.19-1.44 77.46 2.6 1.36 12.84 7.24 91.66 7.65 86.82L975 219.77c.06-.05 2.16 16.58 4.8 36.12 4 33.76 8.63 58.5 7.13 57.24-6.47 11.22-90.34 156.53-90.42 156.66-1-.35-57.11-47.55-53.66-43.81-48.11 4.78-136.84 13.15-177.23 13.53l29 124.64-100.2 44.35-50.32-3.63-92.43 59.71-105.4-42.15-17.16-129.71-166.18 29.46-130.06-54.52L0 348.45l100.81-56.12z" />
            <path style="fill: #ddc344"
                d="M89.37 452.78c-.47-13.76 19-91 34.84-77.18 42.87 44 62.67-2 55.88-39.3-9.61-181.84-22.09-161.41 20.69-168.59 13.89-.8 40.55-6.42 46 7.48 19 95.31 30.63 242-24.18 285.88-26.68 22.83-120.6 27.08-133.23-8.29zM280.86 448c-3.29-75.91-7.86-316.7 59.69-307.2 82.13-6.54 132.17 209.64 152.69 258.33 7.48 31 4.9 21.93-28.36 38.57-44.36 25.94-45.48-47.17-62.36-75.72-4.26-18.46-22.67-7.26-34.81-5.26-34.33 3.79-10.14 50.93-15.84 78.07 3.56 29.91-78.48 39.54-71.01 13.21zm78.76-130.82c68.06-7.38-17.33-148.14-12-49.64.74 18.39-.36 50.09 12 49.65zM483.7 291.48c-13.16-62-34.32-142.55-16.36-145.27 23.69-11.05 62.33-17.39 68.55-6.51 15.91 26.73-1.42 108.53 24.3 78.05 39.83-44.59 33.43-88.83 42.39-91.93 22.16-5.75 79.63-18.38 73.84 9.2 2 51.72-48.28 85-73.37 120.89 48 22.92 76.33 76.11 86.53 128.21-13.2 13.13-42.91 14.74-62.1 15.75-10.64-25.48-13.55-49.75-38.28-66.63-29.77-25.89-2.63 49.31-6.65 61 5.23 19.84-17.59 22.12-33.88 24.61-47.92 11.63-39.49-9.07-46.78-36.38-1.25-6.31-18.14-90.75-18.19-90.99zM723.38 339.49c-5.28-16.36-26.5-173.52-24.12-166.37-7.42-16.54 55.11-15.2 60.48-12.57 13.77 12.52 10.89 27.69 13.29 40.74 7.32 62.72 15.74 118.32 21 179.1-.88 6-15 6.51-15.25 7.3-63.93 11.91-41.78-10.32-55.4-48.2z" />
            <text transform="matrix(.95 .33 -.33 .95 803.61 357.6)" font-size="227.22"
                font-family="CookieSupplyDEMO-Regular,Cookie Supply DEMO" fill="#ddc344">S</text>
            <path style="fill: #ddc344"
                d="M684.78 90.74c22.74-50.84 90.74-21.29 76.56 24.57-20.34 42.39-90.12 13.86-76.56-24.57z" />
            <path style="fill: #ddc344"
                d="M697 53.74c1.86-5.27 7.34-5.9 12.83-.19 22.53 15.92 14.4 17.59-3.92 24.44-18.73 9.69-9.73-15.06-8.91-24.25zM759.72 60c5.56-.68 8.56 4 5.9 11.41-4.22 27.26-9.33 20.72-23.63 7.38C725 66.32 751.14 63.36 759.72 60z" />
            <path style="fill: #fea621"
                d="M350.51 392c14 37.27 21.67-7.91 13.95-16.74-14.96-4.66-18.62 4.61-13.95 16.74zM405.12 375.53c9.33 36.36-17 9.83-21.73-3.24 4.77-12.91 18.91-11.83 21.73 3.24z" />
            <path style="fill: #fea621"
                d="M375.09 386.53c-42.4 11.83-53.88-99.65-30.33-105.49 33.82-15.86 44.51 12.79 48.42 46.84 6.54 30.34 10.64 49.29-18.09 58.65z" />
            <path style="fill: #f7e05c"
                d="M86.64 438c-.47-13.76 19-91 34.84-77.17 42.87 44 62.67-2 55.88-39.31-9.61-181.84-22.06-161.41 20.69-168.59 13.89-.8 40.55-6.42 46 7.48 19 95.32 30.63 242-24.18 285.88-26.68 22.79-120.63 27.04-133.23-8.29zM274.27 433.69C271 357.77 266.36 117 334 126.48c82.13-6.54 132.17 209.64 152.69 258.33 7.49 31 4.9 21.93-28.36 38.57-44.36 25.94-45.48-47.17-62.36-75.72-4.26-18.46-22.67-7.26-34.81-5.26-34.33 3.79-10.14 50.93-15.84 78.07 3.52 29.91-78.52 39.53-71.05 13.22zM353 302.87c68.07-7.38-17.33-148.14-12-49.64.77 18.38-.33 50.08 12 49.64zM478.33 278.08C465.17 216.05 444 135.53 462 132.81c23.69-11 62.33-17.39 68.55-6.51 15.91 26.73-1.42 108.53 24.3 78.05 39.83-44.59 33.43-88.83 42.39-91.93 22.16-5.75 79.63-18.38 73.84 9.2 2 51.72-48.28 85-73.37 120.89 48 22.92 76.33 76.11 86.53 128.21-13.2 13.13-42.91 14.74-62.1 15.75-10.64-25.48-13.55-49.75-38.28-66.63-29.78-25.89-2.63 49.31-6.65 61 5.23 19.84-17.59 22.12-33.88 24.61-47.95 11.55-39.52-9.1-46.81-36.45-1.25-6.24-18.14-90.68-18.19-90.92zM715.78 325.3c-5.27-16.36-26.5-173.52-24.11-166.37-7.42-16.54 55.11-15.2 60.48-12.57 13.77 12.52 10.89 27.69 13.28 40.74 7.33 62.72 15.75 118.32 21 179.1-.89 6-15 6.51-15.25 7.3-63.92 11.91-41.77-10.32-55.4-48.2z" />
            <path style="fill: #fea621"
                d="M323.13 304.48c-2.46 37.46 18.54 6.52 20.75-7.19-7.07-11.82-20.76-8.14-20.75 7.19zM392.17 291.89c13.74 34.94-15.68 11.85-21.95-.54 2.92-13.14 17.35-14.15 21.95.54z" />
            <path d="M324.51 280c1.95-40.28 53.43-39.16 57.71-4.17-.96 36.17-56.64 35.06-57.71 4.17z" fill="#e48916" />
            <text transform="matrix(.95 .33 -.33 .95 800.88 342.78)" fill="#f7e05c" font-size="227.22"
                font-family="CookieSupplyDEMO-Regular,Cookie Supply DEMO">S</text>
            <path style="fill: #fea621"
                d="M322.35 276.81c2.43-41.4 57-40.07 61.25-4.55-1.13 36.74-60.27 36.23-61.25 4.55z" />
            <path style="fill: #fea621"
                d="M321.06 247.12c-1-6.92 10.09-3.92 13.55-2.13 24.86 2.55-14.82 40.1-13.55 2.13z" />
            <path d="M352 277.73c-1-1.75 7.1-4.23 4.52.66-.19 2.68-2.18 2.61-4.52-.66z" />
            <path style="fill: #fea621" d="M367.51 234.62c5.76-4 8 7.29 7.94 11.18 8.79 23.4-42.45 4.6-7.94-11.18z" />
            <path d="M344.83 270.87c1.42 7.48-9.26 3.84-3.36-3.66.9.03 1.72.19 3.36 3.66z" />
            <path style="fill: #fff" d="M342.83 268.54c-.34-.49-.64-.43 0 0 .42.46-1.83 1.13 0 0z" />
            <path d="M365.62 267c1.43 7.48-9.25 3.84-3.36-3.66.9-.01 1.74.15 3.36 3.66z" />
            <path style="fill: #fff" d="M363.63 264.63c-.34-.49-.64-.44 0 0 .42.47-1.85 1.13 0 0z" />
            <path
                d="M810.23 192.08c6.72-49.52-4.93-68 31.45-61 9.74-.46 21.35 1.31 23.22 13.44-6.83 49.34-82.3 156.1-54.67 47.56z"
                fill="#df8e22" />
            <path
                d="M348.43 284.38l.57.49c.2.13.41.22.58.32s.32.22.48.32a4 4 0 00.57.16A3.44 3.44 0 00353 285a4.28 4.28 0 001.63-2 3.35 3.35 0 00.25-1.24 4.7 4.7 0 00.18-.67l.08-.75q.23.3.45.66a4.39 4.39 0 01.29.77 4.34 4.34 0 01-.32 1.59 5.32 5.32 0 01-2 2.44 4.46 4.46 0 01-3.1.81 4.8 4.8 0 01-.82-.24 6.07 6.07 0 01-.73-.47 4.59 4.59 0 01-.37-.78 5.83 5.83 0 01-.11-.74z" />
            <path
                d="M362.85 281.67a5.59 5.59 0 01.18.78 5.07 5.07 0 01-.06.85 5.78 5.78 0 01-.51.71 4.23 4.23 0 01-.68.52 4.44 4.44 0 01-3.18.38 5.42 5.42 0 01-2.75-1.55A4.29 4.29 0 01355 282a4.6 4.6 0 010-.83 5.79 5.79 0 01.18-.77l.34.67a4 4 0 00.41.56 3.31 3.31 0 00.68 1.06 4.35 4.35 0 002.24 1.25 3.47 3.47 0 002.45-.26 4.1 4.1 0 00.47-.35 5.11 5.11 0 00.33-.48 5.75 5.75 0 00.43-.51z" />
            <path style="fill: #f7e05c"
                d="M680.44 88c22.74-50.81 90.74-21.26 76.56 24.6-20.39 42.4-90.12 13.86-76.56-24.6z" />
            <path style="fill: #f7e05c"
                d="M692.65 51c1.86-5.27 7.34-5.9 12.83-.19 22.53 15.92 14.39 17.59-3.92 24.44-18.72 9.75-9.72-15.03-8.91-24.25zM755.38 57.27c5.56-.68 8.56 3.95 5.89 11.41-4.21 27.26-9.32 20.72-23.62 7.38-17.01-12.45 9.15-15.41 17.73-18.79z" />
            <path style="fill: #fea621"
                d="M809.22 184.3c6.72-49.52-4.93-68 31.46-61 9.73-.46 21.34 1.31 23.21 13.44-6.82 49.34-82.29 156.1-54.67 47.56zM405.31 544c61-16.22 20.71 44.74-15.43 33.8-24.94-18.25-9.12-86.48-14.09-111.36-.36-54.94-8.48-82-3.34-99.15 29.8-18.63 14.55 207.3 32.86 176.71z" />
            <path style="fill: #fea621"
                d="M465.43 598.93c-25.43 3.05-14.77-59.6-19-84.4-1.16-12.18.4-32.14 16.81-24.2 10.09 21.19 16.66 116.31 2.19 108.6zM464 462.52c-.19 9.55-9.19 14.81-14.91 12.21-16.46-8.4 10.14-34.92 14.91-12.21zM538.8 497.44c35 20.2-41.36 14.6-35.78 26-1 13.57 10.05 53.49-7.95 51.08-15.45-9-10.77-91.19-16.85-104.83-4.56-31.07-5.55-25.6 22-30 26.39-3.24 50.95-13.66 60.14-4.58 8.74 17.05-25.61 17.47-54.92 19.95-25.45-2.08-6.76 19.66-5.15 47.4 25.76-5.53 22.77-5.68 38.51-5.02zM625.55 431.57c25.22 26.45-56.68 6.61-43.88 19.4 9.06 63.41 18.08 17.3 43.39 34.7 4.1 13.26-40.74 9.15-34.22 14.55.74 8.48 2.87 35.94 5.47 33.62 1.68 1.46 53-9.77 36.48 14.46-82.75 33.22-51-34.41-60.67-74.87.43-13.24-7.82-31.9 2.58-38.47 14.74-2.42 37.54-9.38 50.85-3.39z" />
        </g>
    </g>
</svg>