<svg xmlns="http://www.w3.org/2000/svg" viewBox="0 0 190.19 101.73"><g id="Layer_2" data-name="Layer 2"><g id="Layer_1-2" data-name="Layer 1"><g id="revised"><path d="M85.58,96.6c-.07-.07-.15-.11-.22-.18-1.44-1.42-3-2.67-4.4-4.18-.76-.26-1.19-.94-1.76-1.44a35.05,35.05,0,0,1-3.3-3,1.8,1.8,0,0,0-.2-.19c-.93-.88-2.14-1.48-2.7-2.72-.37.08-.59-.15-.83-.37-1.69-1.63-3.39-3.24-5.07-4.87C66,78.48,66,78.15,67.08,77a8.62,8.62,0,0,1,.71-.63c.13-.35.44-.54.68-.8,3-3.07,6.34-5.7,9.36-8.71,1-1,1-1-.2-1.9a22.24,22.24,0,0,1-3.08-2.09,5.71,5.71,0,0,1-2.46-1.79A1,1,0,0,1,72,60a32.77,32.77,0,0,1,2.42-5.33,25.46,25.46,0,0,1,1.31-3.1,2.19,2.19,0,0,0-.19-2.26c-1.66-2.36-3.28-4.75-4.94-7.11-2.62-3.72-5.34-7.37-7.82-11.19-.52-.81-1-1.64-1.57-2.41-.92-1.24-.73-2.6-.48-4,.63-3.55,1.31-7.08,2-10.62a5.73,5.73,0,0,1,2.07-3.23c.22-.27.43-.55.67-.81l7.51-7.88c1-1,.94-1.28-.47-1.61-1-.23-1.94-.34-2.91-.5H62.2c-.15.23-.39.18-.61.2A72.26,72.26,0,0,0,52.1,1.66a75.22,75.22,0,0,0-20.41,7.9A72.72,72.72,0,0,0,18,19.44,60.93,60.93,0,0,0,5.28,35.33,42.13,42.13,0,0,0,.07,52.7,33.92,33.92,0,0,0,2,66.42c2.88,8,8,14.33,14.61,19.58A67.3,67.3,0,0,0,33.8,95.84a82.25,82.25,0,0,0,20.25,5.24c2.32.29,4.65.47,7,.63S81,100.9,85.35,97.94C86.29,97.32,86.45,97.35,85.58,96.6ZM15.87,49.76a2.51,2.51,0,1,1,2.48,2.5A2.48,2.48,0,0,1,15.87,49.76Zm4.57,6.9c-.41,0-.64-.27-.69-.65s.23-.68.57-.84a.75.75,0,0,1,.74.67A.69.69,0,0,1,20.44,56.66ZM32,82.54a1.53,1.53,0,0,1-1.45-1.68A1.46,1.46,0,1,1,32,82.54Zm1.09-34.13A1.48,1.48,0,0,1,31.7,47a1.35,1.35,0,1,1,1.38,1.44ZM54.84,21.85a.5.5,0,0,1-.57.51.57.57,0,0,1,0-1.14A.53.53,0,0,1,54.84,21.85ZM56.41,55.6a1.45,1.45,0,1,1,1.45,1.48A1.48,1.48,0,0,1,56.41,55.6ZM59.2,70.19c-.62,0-.84-.45-.83-1s.21-1,.83-1,.73.5.89.9C60,69.72,59.84,70.2,59.2,70.19Zm2.28,27.2a1.45,1.45,0,0,1,.08-2.89,1.45,1.45,0,1,1-.08,2.89Z" style="fill:#e4bb9f"/><path d="M189.82,33.76a28.29,28.29,0,0,0-.75-4.75,92.42,92.42,0,0,0-10.22-4.82c-.37-.16-.82-.23-1-.66a2.23,2.23,0,0,1-1.18-.3c-1.5-.59-2.88-1.5-4.63-1.26a26.06,26.06,0,0,1-5.15.19c-1.13.44-2.33.2-3.5.35s-2.55.27-3.82.38a4.59,4.59,0,0,0-2.72,1.3C153.19,27.4,150,31,146.6,34.51c-2.71,2.8-5.5,5.5-8.23,8.27a3.16,3.16,0,0,1-3.35.72c-2.8-.67-5.61-1.29-8.43-1.91-1.71-.38-2.06-.19-2.6,1.48-.44,1.34-.78,2.71-1.19,4-.21.67-.47,1.33-.74,2a.91.91,0,0,1-1.41.51,66.75,66.75,0,0,1-6.74-4.29c-.11-.07-.14-.27-.21-.41-.45.12-.72-.23-1-.43-1.93-1.33-3.83-2.68-5.84-3.88-1.19-.72-1.31-.7-2.16.46-1.63,2.26-3.12,4.61-4.66,6.94a26.55,26.55,0,0,1-2.51,3.71,13.49,13.49,0,0,1-1.67,2.9c-1.67,2.73-3.38,5.44-5.08,8.15a3.35,3.35,0,0,1-.43.5l0,.12,0,.12a.21.21,0,0,1,0,.06,1.4,1.4,0,0,1-.1.16.69.69,0,0,0,0,.89A111.66,111.66,0,0,0,99.59,77,68.59,68.59,0,0,0,123,94a54.23,54.23,0,0,0,19.52,4.31,52.1,52.1,0,0,0,10.73-.77,43.79,43.79,0,0,0,11.16-3.22c8.7-4.07,14.57-10.9,18.69-19.35a71.81,71.81,0,0,0,6.75-25.9,7.32,7.32,0,0,1,.33-2.62V36.83A17.4,17.4,0,0,1,189.82,33.76Zm-88,25.4c0-.48.1-1.07.71-1s.66.52.64,1-.12,1-.66,1S101.75,59.66,101.78,59.16Zm1,9.69A1.84,1.84,0,0,1,101.19,67a1.68,1.68,0,1,1,3.29,0A1.83,1.83,0,0,1,102.8,68.85Zm31-3.86a1.23,1.23,0,0,1-1.28-1.14,1.2,1.2,0,0,1,1.26-1.16A1.15,1.15,0,0,1,135,63.78,1.18,1.18,0,0,1,133.76,65Zm6.11,28.93a1.42,1.42,0,0,1-1.39-1.11c-.14-.6.67-1.28,1.55-1.39s2,.4,2.08,1.1S141.25,93.93,139.87,93.92ZM140,82.35a2.22,2.22,0,1,1,2.27-2.21A2.2,2.2,0,0,1,140,82.35Zm20.66.75a1,1,0,0,1-1-1.07c0-.63.44-1,1-1,.6.11,1,.43,1,1.06A1,1,0,0,1,160.7,83.1Zm3-33a.86.86,0,1,1,.07-1.72c.53,0,.77.38.79.91A.81.81,0,0,1,163.66,50.14Zm4.41-3.47a3,3,0,1,1,3-3A3.06,3.06,0,0,1,168.07,46.67Z" style="fill:#e4bb9f"/><path d="M166.87,22.16c-1.13.44-2.33.2-3.5.35s-2.55.27-3.82.38a4.59,4.59,0,0,0-2.72,1.3C153.19,27.4,150,31,146.6,34.51c-2.71,2.8-5.5,5.5-8.23,8.27a3.16,3.16,0,0,1-3.35.72c-2.8-.67-5.61-1.29-8.43-1.91-1.71-.38-2.06-.19-2.6,1.48-.44,1.34-.78,2.71-1.19,4-.21.67-.47,1.33-.74,2a.91.91,0,0,1-1.41.51,66.75,66.75,0,0,1-6.74-4.29c-.11-.07-.14-.27-.21-.41,2.43-3.48,4.87-6.95,7.43-10.32.89-1.17.9-1.18,2.07-.34,2.32,1.67,4.62,3.37,7,5,.81.58,1.69,1,2.53,1.59a1.33,1.33,0,0,0,2-.43c1.24-1.68,2.39-3.42,3.49-5.2q3.6-5.86,7.17-11.75a3.23,3.23,0,0,1,2.3-1.65,128.61,128.61,0,0,1,15.73-2.23,1.5,1.5,0,0,1,1.14.38A21.6,21.6,0,0,1,166.87,22.16Z" style="fill:#f0eee8"/><path d="M189.07,29a92.42,92.42,0,0,0-10.22-4.82c-.37-.16-.82-.23-1-.66,2.5-2,5-4,7.62-5.89.87-.63,1-.61,1.3.4A54.64,54.64,0,0,1,189.07,29Z" style="fill:#f0eee8"/><path d="M64.73,10.8c-.36,3.86-.71,7.73-1.09,11.59-.28,2.88-.6,5.75-.9,8.62-.52-.81-1-1.64-1.57-2.41-.92-1.24-.73-2.6-.48-4,.63-3.55,1.31-7.08,2-10.62A5.73,5.73,0,0,1,64.73,10.8Z" style="fill:#f0eee8"/><path d="M79.41,59.41a57.05,57.05,0,0,1-4.86,3.46,5.71,5.71,0,0,1-2.46-1.79A1,1,0,0,1,72,60a32.77,32.77,0,0,1,2.42-5.33,49.66,49.66,0,0,1,5,3.41C80,58.56,80,58.93,79.41,59.41Z" style="fill:#f0eee8"/><path d="M97.51,51.71a13.49,13.49,0,0,1-1.67,2.9c-1.67,2.73-3.38,5.44-5.08,8.15a3.35,3.35,0,0,1-.43.5c.14-1.16.29-2.32.46-3.47.38-2.54.84-5.07,1.35-7.59.19-1,.64-1.27,1.58-1.1C95,51.34,96.24,51.51,97.51,51.71Z" style="fill:#f0eee8"/><path d="M73,84.85c-.37.08-.59-.15-.83-.37-1.69-1.63-3.39-3.24-5.07-4.87C66,78.48,66,78.15,67.08,77a8.62,8.62,0,0,1,.71-.63c1.66,1.79,3.36,3.53,4.95,5.38C74,83.25,74.17,82.85,73,84.85Z" style="fill:#f0eee8"/><path d="M81,92.24c-.76-.26-1.19-.94-1.76-1.44a35.05,35.05,0,0,1-3.3-3,22.38,22.38,0,0,1,3.17-.08,1,1,0,0,1,1,.75A23.76,23.76,0,0,1,81,92.24Z" style="fill:#f0eee8"/><path d="M18.35,52.26a2.51,2.51,0,1,1,2.53-2.45A2.49,2.49,0,0,1,18.35,52.26Z" style="fill:#d0936a"/><path d="M30.54,80.86A1.46,1.46,0,1,1,32,82.54,1.53,1.53,0,0,1,30.54,80.86Z" style="fill:#d0946b"/><path d="M57.85,54.19a1.45,1.45,0,1,1,0,2.89,1.48,1.48,0,0,1-1.45-1.48A1.5,1.5,0,0,1,57.85,54.19Z" style="fill:#d0936a"/><path d="M63,95.94a1.45,1.45,0,1,1-1.4-1.44A1.5,1.5,0,0,1,63,95.94Z" style="fill:#c68a60"/><path d="M33.08,48.41A1.48,1.48,0,0,1,31.7,47a1.35,1.35,0,1,1,1.38,1.44Z" style="fill:#d0936a"/><path d="M60.09,69.18c-.13.54-.25,1-.88,1s-.85-.45-.84-1,.21-.95.84-1S59.93,68.78,60.09,69.18Z" style="fill:#d0946b"/><path d="M20.32,55.17a.75.75,0,0,1,.74.67.69.69,0,0,1-.62.82c-.41,0-.64-.27-.69-.65S20,55.33,20.32,55.17Z" style="fill:#d0946b"/><path d="M54.3,21.22a.53.53,0,0,1,.54.63.5.5,0,0,1-.57.51.53.53,0,0,1-.55-.63A.52.52,0,0,1,54.3,21.22Z" style="fill:#d1966d"/><path d="M168.06,40.69a3,3,0,1,1-3,3.05A3.06,3.06,0,0,1,168.06,40.69Z" style="fill:#cf9369"/><path d="M142.32,80.14a2.22,2.22,0,1,1-2.17-2.23A2.22,2.22,0,0,1,142.32,80.14Z" style="fill:#d0936a"/><path d="M104.48,67a1.65,1.65,0,1,1-3.28,0,1.67,1.67,0,1,1,3.28,0Z" style="fill:#d0936a"/><path d="M139.87,93.92a1.42,1.42,0,0,1-1.39-1.11c-.14-.6.67-1.28,1.55-1.39s2,.4,2.08,1.1S141.25,93.93,139.87,93.92Z" style="fill:#c68a61"/><path d="M133.76,65a1.23,1.23,0,0,1-1.28-1.14,1.2,1.2,0,0,1,1.26-1.16A1.15,1.15,0,0,1,135,63.78,1.18,1.18,0,0,1,133.76,65Z" style="fill:#d0946b"/><path d="M160.76,81c.6.11,1,.43,1,1.06a1,1,0,0,1-1.1,1.06,1,1,0,0,1-1-1.07C159.72,81.4,160.15,81.09,160.76,81Z" style="fill:#d0946b"/><path d="M164.52,49.33a.79.79,0,0,1-.86.8.86.86,0,1,1,.07-1.71C164.26,48.46,164.5,48.8,164.52,49.33Z" style="fill:#d1966d"/><path d="M103.13,59.12c0,.49-.12,1-.66,1s-.72-.46-.69-1,.09-1.07.71-1S103.15,58.63,103.13,59.12Z" style="fill:#d0946b"/></g></g></g></svg>