<svg xmlns="http://www.w3.org/2000/svg" viewBox="0 0 223.13 171.55"><g id="Layer_2" data-name="Layer 2"><g id="Layer_1-2" data-name="Layer 1"><g id="revised"><path d="M178,161.19c-1.05-.44-.55-1.6-.62-2.42-.68-8.36-3.12-16.08-8.42-22.71-3.34-4.17-7.72-7.08-12.4-9.57-1.54-.83-3.11-1.59-4.67-2.39l-1.3-.86c-1.46-1-1.61-1.31-.81-2.83.95-1.81,2-3.56,3-5.35a39.2,39.2,0,0,0,4.8-12,18.28,18.28,0,0,0-1.74-12.56,43,43,0,0,0-6.26-8.41c-2.37-2.57-4.78-5.12-7.23-7.62a3.25,3.25,0,0,1-.64-4,38.63,38.63,0,0,1,2.85-5.06,45.93,45.93,0,0,0,4.32-8.32,56.9,56.9,0,0,0,3.58-9.74c2.35-8.13,4.54-16.29,5-24.81a176.38,176.38,0,0,0-.41-18A9.8,9.8,0,0,1,157.44.1l.44-.1c8.77,6.75,15.69,15.23,22.34,24a155.11,155.11,0,0,1,19.41,32.81,98.12,98.12,0,0,1,7.26,25.06c.18,1.33.33,2.67.49,4,.19,3.17.2,6.35.19,9.53a119.59,119.59,0,0,1-2.48,16.31c-3.66,15.53-9.74,30-19.31,42.83a29.21,29.21,0,0,1-5.23,5.65C179.81,160.72,179,161.62,178,161.19Z" style="fill:#ce5959"/><path d="M45.62,171.5a12.21,12.21,0,0,1-4.27-1.92A71.63,71.63,0,0,1,27.1,157.26a107.73,107.73,0,0,1-20.23-31A107.09,107.09,0,0,1,2.92,115.1c-.08-.27,0-.61-.38-.75L.59,105.61a21.65,21.65,0,0,0-.35-4.18c-1.11-13.05,1.64-25.34,7.38-37a89.93,89.93,0,0,1,19.12-26c.49-.46,1-.9,1.53-1.31,1-.8,1.29-.71,1.42.57A15.09,15.09,0,0,0,30.57,42c1.34,3.29,3.94,5.36,6.89,7.07A29.93,29.93,0,0,0,46,52.16c3.06.7,3,.72,2.86,3.81a24.7,24.7,0,0,0,0,5.57,11.69,11.69,0,0,0,1.92,7.07,21.79,21.79,0,0,0,8,7.36,1.49,1.49,0,0,1,.68,2.23c-.81,1.59-1.57,3.22-2.48,4.75-4.53,7.58-5.48,15.68-3.82,24.23,1.36,7,5.54,12,11,16.16.44.49.9,1,1.34,1.49a1.62,1.62,0,0,1-.08,2.47c-.75.73-1.53,1.43-2.34,2.08a54.72,54.72,0,0,0-8.65,8.22c-3.5,4.37-5.22,9.5-6.47,14.84-1.37,5.81-2,11.66-.7,17.59C47.36,171.24,46.84,171.72,45.62,171.5Z" style="fill:#ce5959"/><path d="M115.39,147.93c.78-2.05,1.49-4.14,2.37-6.15a37.39,37.39,0,0,1,11.76-15.5,13.18,13.18,0,0,1,4.95-2.47,34.7,34.7,0,0,1,10.76-.4c2.23.18,4.44.46,6.66.69l-1.3-.86c-1.46-1-1.61-1.31-.81-2.83.95-1.81,2-3.56,3-5.35a39.2,39.2,0,0,0,4.8-12,18.28,18.28,0,0,0-1.74-12.56,43,43,0,0,0-6.26-8.41c-2.37-2.57-4.78-5.12-7.23-7.62a3.25,3.25,0,0,1-.64-4,38.63,38.63,0,0,1,2.85-5.06,45.93,45.93,0,0,0,4.32-8.32c-1.8-.5-3.64-.79-5.4-1.42a49.42,49.42,0,0,1-15.86-9.85c-1.65-1.44-3.25-2.94-4.9-4.4-1.27-1.12-1.66-1.1-2.92,0-1,.87-1.91,1.78-2.85,2.68-4.41,4.26-8.92,8.37-14.27,11.45a22.93,22.93,0,0,1-17.84,2.61,48.7,48.7,0,0,1-7.13-2.62C76.27,55,76,55,75,56.22a29.11,29.11,0,0,1-5.41,5.62C66.49,64,63.18,65.56,59.3,65.12a26.78,26.78,0,0,1-8.37-2.68,6.42,6.42,0,0,0-2.14-.9,11.69,11.69,0,0,0,1.92,7.07,21.79,21.79,0,0,0,8,7.36,1.49,1.49,0,0,1,.68,2.23c-.81,1.59-1.57,3.22-2.48,4.75-4.53,7.58-5.48,15.68-3.82,24.23,1.36,7,5.54,12,11,16.16,1.63-.07,3.26-.16,4.89-.18a42,42,0,0,1,21.57,5.25,75,75,0,0,1,14.8,11.13c2.91,2.78,5.68,5.7,8.38,8.68C114.73,149.43,114.82,149.41,115.39,147.93ZM100.78,90.1a18.33,18.33,0,0,1-6.09.23,11.91,11.91,0,0,1-2.06-.5c-.56-.19-1.18-.47-1.21-1.16s.53-1,1-1.22a15.49,15.49,0,0,1,10.89-.63c.53.16,1.09.45,1.15,1.09s-.5,1-1,1.24A8.58,8.58,0,0,1,100.78,90.1Zm9.55,5.66a18.13,18.13,0,0,1-6.1.24,11.76,11.76,0,0,1-2-.46c-.6-.19-1.29-.45-1.32-1.19s.63-1.08,1.2-1.32a15.79,15.79,0,0,1,10.48-.62c.61.17,1.3.43,1.37,1.15s-.67,1.1-1.25,1.41A8.15,8.15,0,0,1,110.33,95.76Z" style="fill:#f8e4a0"/><path d="M216.72,94.85c-3,.23-6.1.34-9.15.5,0-3.18,0-6.36-.19-9.53,2.94-.14,5.88-.32,8.82-.42a8.11,8.11,0,0,1,5.17,1.5,3.53,3.53,0,0,1,.33,5.89A8.07,8.07,0,0,1,216.72,94.85Z" style="fill:#7aa542"/><path d="M110.33,95.76a18.12,18.12,0,0,1-6.1.24,12,12,0,0,1-2-.46c-.6-.19-1.29-.45-1.32-1.19s.63-1.08,1.2-1.32a15.76,15.76,0,0,1,10.49-.62c.6.16,1.29.43,1.36,1.15s-.66,1.1-1.24,1.41A8.31,8.31,0,0,1,110.33,95.76Z" style="fill:#937d73"/><path d="M100.78,90.1a18.38,18.38,0,0,1-6.1.23,12.26,12.26,0,0,1-2.05-.5c-.57-.19-1.18-.46-1.21-1.16s.53-1,1-1.22a15.49,15.49,0,0,1,10.89-.63c.53.16,1.09.45,1.15,1.09s-.5,1-1,1.24A8.58,8.58,0,0,1,100.78,90.1Z" style="fill:#937d73"/></g></g></g></svg>