<svg xmlns="http://www.w3.org/2000/svg" viewBox="0 0 327.13 148.71"><g id="Layer_2" data-name="Layer 2"><g id="Layer_1-2" data-name="Layer 1"><g id="revised"><path d="M315.48,49.28a79.12,79.12,0,0,0-26-6.51,69.29,69.29,0,0,0-38.31,7.67,38.54,38.54,0,0,0-7,4.65,1.45,1.45,0,0,1-1.8.32,127.26,127.26,0,0,0-12.52-5c-.93-.31-1.15-.65-1-1.69a100.63,100.63,0,0,0,1.3-21.44A12.32,12.32,0,0,0,227.61,20c-.56-.69-1.24-1.51-2.24-1.15s-1.09,1.37-1.09,2.28c-.07,8.57-2.65,16.72-4.17,25-.18,1-.59,1.09-1.54.85a135.26,135.26,0,0,0-20.82-3.94c-1.26-.13-1.79-.56-1.85-2a135.61,135.61,0,0,0-3.48-25.66A23.54,23.54,0,0,0,189,7a7.88,7.88,0,0,0-3.11-2.87c-1.56-.7-2.51-.15-2.53,1.57,0,2.23.81,4.34,1,6.55,0,.41.13.83.15,1.25.23,9,.45,18,.37,26.93,0,1.18-.32,1.53-1.52,1.5a157.33,157.33,0,0,0-21.38.76c-.94.11-.87-.42-1-1-1.16-5.62-2.43-11.22-4-16.75S153.45,14,151.35,8.63A16.41,16.41,0,0,0,144.23,0h-1.58a3.43,3.43,0,0,0-.42,3.15c.81,2.57,1.75,5.11,2.3,7.73C145.79,16.9,146.9,23,148,29c.8,4.41,1.5,8.83,2.2,13.25.14.87.53,1.87-1,2.11a163.08,163.08,0,0,0-21.28,4.87c-1.17.34-1.62,0-2-1-1.33-3.56-2.89-7-4.49-10.47a207.31,207.31,0,0,0-12-21.94,19.64,19.64,0,0,0-8-7.52c-.92-.45-2-.74-2.82.12s-.36,1.71,0,2.53c.46,1.06,1,2.09,1.55,3.11.84,1.59,1.86,3.1,2.55,4.74,4.61,10.89,8.85,21.92,13,33,.36,1,.21,1.35-.79,1.7a164.19,164.19,0,0,0-16.25,6.7,1.38,1.38,0,0,1-2.09-.5A96.67,96.67,0,0,0,81.07,42.35,107.28,107.28,0,0,0,58.61,27a3.19,3.19,0,0,0-3.23,0c-11,5.55-19.87,13.7-27.7,23.07a141.89,141.89,0,0,0-17.42,26.4c-4.58,8.94-8.7,18.09-10,28.19-.36,2.72-.61,5.55,1.78,7.67a11.9,11.9,0,0,0,5.63,2.74c3.23.66,6.42.07,9.62-.21,2.73-.25,5.42-.35,7.74,1.46,1.53,1.19,1.39,2.12-.45,2.77a47.92,47.92,0,0,1-6,1.37c-2.84.61-5.75,1-8.19,2.79-2,1.45-2.11,3.19-.28,4.82A25.45,25.45,0,0,0,16,131.85c18.22,9,37.29,15,57.63,16.61a57.25,57.25,0,0,0,20.57-1.68c9.66-2.78,16.11-8.81,17.92-18.89a90.16,90.16,0,0,0,.32-26.65,90.81,90.81,0,0,0-7.61-27.16c-.38-.83-.35-1.3.54-1.76,4.45-2.33,9-4.39,13.63-6.38,1.24-.53,1.72-.22,2.14,1,2.51,7.28,5.09,14.54,7.61,21.82,1.79,5.13,3.76,10.2,4.68,15.58a24.57,24.57,0,0,0,2.17,7.25c.31.61.73,1.26,1.52,1.23s1.26-.71,1.55-1.41a12.54,12.54,0,0,0,.83-4.65c.09-7.17-1.6-14.12-2.74-21.12a166.15,166.15,0,0,0-5.59-22.71c-.23-.73-.4-1.24.6-1.55a158.64,158.64,0,0,1,19.22-4.64c1-.18,1.46.07,1.61,1.24.86,6.53,1.88,13,2.74,19.56s1.92,13,1.61,19.68a7.84,7.84,0,0,0,.13,2.22c.3,1.22.15,3,1.76,3.18s2.14-1.49,2.63-2.76a31.92,31.92,0,0,0,1.88-10.7c.06-2.63.21-5.26.4-7.89a158.63,158.63,0,0,0-.54-23.88c-.19-2.36-.32-2.34,2.05-2.51,5.92-.43,11.84-.4,17.76-.39,1.4,0,1.64.49,1.6,1.74-.28,6.75-.43,13.51-.72,20.26a52.48,52.48,0,0,1-1.37,11.28A13.58,13.58,0,0,0,182,92c0,1,.16,2,1.2,2.39s1.76-.25,2.39-.89a10.34,10.34,0,0,0,1.54-2A29.67,29.67,0,0,0,190.36,83c.82-3.48,2-6.88,2.75-10.39a111.94,111.94,0,0,0,2.3-15.46c.06-.89.1-1.81,1.5-1.62,6.39.86,12.72,2,19,3.45.77.18,1.08.37.83,1.26C214.55,68,213.44,76,210,83.41a16.39,16.39,0,0,0-.81,2.39c-.24.83-.47,1.72.32,2.35s1.72.2,2.48-.31A15,15,0,0,0,216.76,82c3.34-6.23,6.6-12.51,8.71-19.3.25-.82.62-.93,1.4-.68,3.61,1.19,7.18,2.51,10.68,4a1.44,1.44,0,0,1,1,1.52,35.66,35.66,0,0,0,.79,6.42,86.82,86.82,0,0,0,13.24,31.46c7.51,11.19,17,19.79,30.71,22.53,3.15.63,6.28,1.56,9.54.84,2.49-.56,3.54-2.18,3.05-4.66a20.65,20.65,0,0,0-1.33-4c-1.63-3.68-3.76-7.1-5.62-10.65-1.4-2.64-2.49-5.32-2.12-8.44a23.77,23.77,0,0,0-4.42-16.59c-.51-.74-1.05-1.46-1.56-2.2s-.58-1.39.66-1.32l1,0c5.26.36,10.09-.63,14-4.47a20.36,20.36,0,0,1,12.17-5.87,42.44,42.44,0,0,0,11.44-3.08c3-1.26,5.64-2.89,7-6V59C324.75,54,320.24,51.4,315.48,49.28ZM47.92,65.84a16,16,0,0,1-4.56,4.77,4.89,4.89,0,0,0-2.14,3.31,15.17,15.17,0,0,1-1.89,5.34c-.42.7-.8,1.69-1.81,1.49s-1.06-1.23-1.23-2c-.22-1-.33-2.06-.49-3.18-1,.35-2,.71-3,1-.81.23-1.77.56-2.35-.24s.14-1.62.58-2.29a15.44,15.44,0,0,1,4-4,4.43,4.43,0,0,0,1.85-3.11,17.49,17.49,0,0,1,2.33-6.5c.34-.52.72-1.16,1.47-1s.95.8,1.08,1.43a18.18,18.18,0,0,1,.49,3.1c0,1.13.39,1.22,1.33.81a15.79,15.79,0,0,1,2.85-.92c.59-.13,1.31-.24,1.73.43S48.2,65.34,47.92,65.84Z" style="fill:#b58f54"/><path d="M35.8,75.53c-1,.35-2,.71-3,1-.81.23-1.77.56-2.35-.24s.14-1.62.58-2.29a15.44,15.44,0,0,1,4-4,4.43,4.43,0,0,0,1.85-3.11,17.49,17.49,0,0,1,2.33-6.5c.34-.52.72-1.16,1.47-1s1,.8,1.08,1.43a18.18,18.18,0,0,1,.49,3.1c0,1.13.39,1.22,1.33.81a15.79,15.79,0,0,1,2.85-.92c.59-.13,1.32-.24,1.73.43s0,1.13-.26,1.63a16,16,0,0,1-4.56,4.77,4.92,4.92,0,0,0-2.14,3.31,15.17,15.17,0,0,1-1.89,5.34c-.42.7-.8,1.69-1.81,1.49s-1.06-1.24-1.23-2C36.07,77.69,36,76.65,35.8,75.53Z" style="fill:#936b35"/></g></g></g></svg>